<svg xmlns="http://www.w3.org/2000/svg" width="32" height="32" viewBox="0 0 32 32">
  <g id="icon-translate--white" transform="translate(-0.42 -0.66)">
    <rect id="Rectangle_23342" data-name="Rectangle 23342" width="32" height="32" transform="translate(0.42 0.66)" fill="none"/>
    <path id="Path_19866" data-name="Path 19866" d="M134.27,119.02a.75.75,0,0,1-.671-.415l-6.464-12.928L120.671,118.6a.75.75,0,0,1-1.342-.671l7.135-14.269a.75.75,0,0,1,1.342,0l7.135,14.269a.75.75,0,0,1-.67,1.086Z" transform="translate(-104.667 -90.706)" fill="#fff"/>
    <path id="Line_344" data-name="Line 344" d="M10,.75H0A.75.75,0,0,1-.75,0,.75.75,0,0,1,0-.75H10a.75.75,0,0,1,.75.75A.75.75,0,0,1,10,.75Z" transform="translate(17.42 23.66)" fill="#fff"/>
    <path id="Line_345" data-name="Line 345" d="M0,4.75A.75.75,0,0,1-.75,4V0A.75.75,0,0,1,0-.75.75.75,0,0,1,.75,0V4A.75.75,0,0,1,0,4.75Z" transform="translate(11.42 3.66)" fill="#fff"/>
    <path id="Line_346" data-name="Line 346" d="M16,.75H0A.75.75,0,0,1-.75,0,.75.75,0,0,1,0-.75H16a.75.75,0,0,1,.75.75A.75.75,0,0,1,16,.75Z" transform="translate(3.42 7.66)" fill="#fff"/>
    <path id="Path_19867" data-name="Path 19867" d="M24,68.981a.75.75,0,1,1,0-1.5A11.133,11.133,0,0,0,35.466,56.454a.75.75,0,0,1,1.5,0,12.238,12.238,0,0,1-3.808,8.965A13.2,13.2,0,0,1,24,68.981Z" transform="translate(-20.898 -48.821)" fill="#fff"/>
    <path id="Path_19868" data-name="Path 19868" d="M73.03,96.9h0A13,13,0,0,1,60.793,88.25a.75.75,0,1,1,1.414-.5A11.5,11.5,0,0,0,73.03,95.4a.75.75,0,0,1,0,1.5Z" transform="translate(-53.621 -76.744)" fill="#fff"/>
  </g>
</svg>
