<svg version="1.2" xmlns="http://www.w3.org/2000/svg" viewBox="0 0 325 74" width="325" height="74">
	<title>footer-logo-svg</title>
	<style>
		.s0 { fill: #494949 } 
		.s1 { fill: #9a9a9a } 
		.s2 { fill: #33a02c } 
		.s3 { fill: #ff730c } 
		.s4 { fill: #8cc919 } 
		.s5 { fill: #28aecf } 
	</style>
	<g id="footer-logo">
		<g id="Layer">
			<path id="Path_19861-2" fill-rule="evenodd" class="s0" d="m87.4 21.4h-4.9v-2h4.9v-2.1h2.2v2.1h2.6v2h-2.6v2.4h-2.2zm-2.9 3.2h16.1v13.7h-2.1v-0.9h-12v0.9h-2zm14 2h-5.1v3.3h5.1zm0 8.9v-3.6h-5.1v3.6zm-7.1 0v-3.6h-4.8v3.6zm-4.8-8.9v3.4h4.8v-3.4zm16-7.1v2h-5v2.3h-2.2v-2.3h-2.4v-2h2.4v-2.2h2.2v2.2zm10.6 0.8h-6.3v-1.9h19.9v1.9h-6.6v1.8h5.2v6h-17.2v-6h5zm7 3.5v2.4h3.1v-2.4zm-5 2.4h3v-2.4h-3zm-5 0h3v-2.5h-3zm8-6h-3v1.8h3zm-3.3 12.9q-0.8 0.8-1.6 1.5-0.8 0.6-1.8 1.2-0.9 0.6-1.9 1-1 0.5-2 0.8-0.2-0.3-0.3-0.5-0.2-0.2-0.4-0.5-0.1-0.2-0.3-0.4-0.2-0.2-0.4-0.4 0.9-0.2 1.8-0.5 1-0.3 1.9-0.8 0.8-0.4 1.6-0.9 0.9-0.6 1.6-1.2zm3-1.2v6.4h-2.1v-6.4h-9v-1.9h9v-1.7h2.1v1.7h9.2v1.9zm2.6 0.4q0.9 0.4 1.8 0.9 0.8 0.5 1.7 1 0.8 0.5 1.6 1 0.9 0.5 1.7 1.1l-1.6 1.4q-0.8-0.6-1.6-1.1-0.8-0.6-1.7-1.1-0.8-0.5-1.6-1-0.9-0.5-1.7-1zm28.6-13.7q-0.9 0.5-1.9 1-0.9 0.4-1.9 0.8-1 0.4-2 0.7-1.1 0.4-2.1 0.6-0.1-0.2-0.1-0.4-0.1-0.1-0.2-0.3-0.1-0.2-0.2-0.4-0.1-0.2-0.2-0.4 1-0.3 1.9-0.6 0.9-0.3 1.8-0.7 0.9-0.5 1.8-0.9 0.9-0.5 1.7-1zm-15.2 13.6q-0.2 0.6-0.4 1.2-0.2 0.7-0.5 1.3-0.2 0.6-0.5 1.2-0.3 0.6-0.6 1.1-0.2-0.1-0.4-0.2-0.2-0.1-0.4-0.2-0.2-0.1-0.3-0.2-0.2-0.1-0.4-0.2 0.3-0.5 0.5-1.1 0.3-0.5 0.5-1.1 0.3-0.5 0.5-1.1 0.2-0.6 0.3-1.1zm2.8-1.4v7.4h-1.8v-7.4h-4.3v-1.7h1v-11.1h8.1v11.1h1v1.7zm-3.3-11.2v1.4h4.5v-1.4zm0 6.8h4.6v-1.3h-4.6zm4.6-4h-4.6v1.4h4.6zm-4.6 6.7h4.6v-1.3h-4.6zm5.5 2.4q0.2 0.4 0.4 0.8 0.3 0.5 0.5 0.9 0.2 0.4 0.3 0.9 0.2 0.4 0.4 0.9l-1.5 0.7q-0.2-0.5-0.3-1-0.2-0.4-0.4-0.8-0.2-0.5-0.4-0.9-0.2-0.4-0.5-0.9zm5.4 0.1q-0.3 0.8-0.5 1.5-0.3 0.7-0.7 1.3-0.3 0.7-0.7 1.4-0.4 0.6-0.8 1.3-0.2-0.1-0.3-0.3-0.2-0.1-0.4-0.2-0.2-0.1-0.4-0.2-0.2-0.1-0.4-0.2 0.4-0.6 0.8-1.2 0.3-0.6 0.6-1.2 0.3-0.7 0.5-1.3 0.3-0.7 0.4-1.3zm2.7-1.5v6.5c0 0.8-0.1 1.1-0.7 1.3q-0.3 0.1-0.6 0.2-0.3 0-0.6 0.1-0.3 0-0.6 0-0.3 0-0.6 0 0-0.2-0.1-0.4 0-0.2-0.1-0.3-0.1-0.2-0.1-0.4-0.1-0.1-0.2-0.3h1.5c0.2 0 0.3-0.1 0.3-0.3v-6.3q-0.5 0-0.9 0-0.5 0.1-0.9 0.1-0.5 0.1-0.9 0.2-0.5 0.1-0.9 0.2-0.1-0.2-0.2-0.5 0-0.2-0.1-0.4-0.1-0.2-0.1-0.4-0.1-0.2-0.2-0.4 0.3-0.1 0.6-0.3 0.3-0.1 0.5-0.2 0.3-0.2 0.5-0.4 0.3-0.1 0.5-0.3 0.4-0.3 0.8-0.7 0.4-0.3 0.8-0.6 0.3-0.3 0.7-0.7 0.4-0.3 0.7-0.6c-3.4 0.2-4 0.3-4.4 0.5q-0.1-0.2-0.1-0.4-0.1-0.2-0.1-0.4-0.1-0.3-0.2-0.5-0.1-0.2-0.1-0.4 0.2 0 0.3-0.1 0.2 0 0.4-0.1 0.2-0.1 0.3-0.2 0.2-0.1 0.3-0.2 0.6-0.3 1-0.7 0.5-0.4 1-0.8 0.4-0.4 0.9-0.8 0.4-0.4 0.8-0.9l1.6 0.8q-0.4 0.4-0.7 0.7-0.4 0.4-0.8 0.7-0.4 0.3-0.8 0.6-0.4 0.3-0.8 0.6l3.1-0.1c0.6-0.6 1.1-1.2 1.6-1.8l1.5 1q-0.7 0.8-1.5 1.6-0.7 0.8-1.5 1.5-0.8 0.7-1.6 1.4-0.9 0.7-1.7 1.4l4.5-0.3c-0.4-0.7-0.8-1.4-1.2-2l1.4-0.7q0.4 0.6 0.7 1.1 0.4 0.6 0.7 1.1 0.3 0.6 0.6 1.2 0.3 0.6 0.5 1.2l-1.5 0.8q-0.2-0.5-0.5-1.1zm2.3 0.8c0.8 1.6 1.9 3.7 2.4 4.9l-1.7 0.8q-0.2-0.6-0.5-1.3-0.3-0.6-0.6-1.2-0.2-0.7-0.6-1.3-0.3-0.6-0.6-1.2zm25.4-7.6q-0.1 1.2-0.4 2.4-0.3 1.1-0.6 2.3-0.4 1.1-0.8 2.2-0.5 1.1-1.1 2.2 0.5 0.6 1 1.2 0.5 0.6 1.1 1.1 0.5 0.5 1.2 0.9 0.6 0.4 1.3 0.8-0.2 0.2-0.4 0.4-0.2 0.2-0.4 0.4-0.2 0.2-0.3 0.5-0.2 0.2-0.4 0.5-0.6-0.4-1.2-0.8-0.6-0.4-1.2-0.9-0.5-0.5-1-1-0.5-0.6-0.9-1.2-0.6 0.6-1.1 1.2-0.6 0.5-1.2 1-0.6 0.5-1.3 1-0.7 0.4-1.4 0.7-0.1-0.2-0.2-0.5-0.2-0.2-0.3-0.4-0.2-0.3-0.4-0.5-0.1-0.2-0.3-0.4 0.7-0.4 1.4-0.8 0.7-0.4 1.3-0.9 0.7-0.5 1.2-1.1 0.6-0.6 1.1-1.2-0.4-0.7-0.7-1.4-0.3-0.7-0.6-1.5-0.3-0.7-0.5-1.4-0.2-0.8-0.4-1.5-0.6 0.9-1.2 1.8-0.1-0.2-0.3-0.3-0.1-0.2-0.3-0.3-0.2-0.2-0.3-0.3-0.2-0.1-0.4-0.3h-2.5v5.3l3.6-0.7 0.2 1.9c-3.8 0.9-7.8 1.8-10.7 2.4l-0.4-2.1 1.3-0.2v-10h2v9.6l1.9-0.4v-12.4h-4.7v-2h10.4v2h-3.6v4.6h2.9v0.7q0.5-1 1-2.1 0.5-1.1 0.9-2.2 0.4-1.1 0.7-2.2 0.3-1.2 0.4-2.3l2.1 0.3q-0.4 2-0.9 3.9h6.9v2zm-6.2 0.4q0.2 0.8 0.4 1.7 0.2 0.8 0.5 1.6 0.2 0.9 0.6 1.7 0.3 0.8 0.6 1.6 0.4-0.9 0.7-1.7 0.3-0.9 0.6-1.7 0.2-0.9 0.4-1.8 0.2-0.9 0.3-1.8h-3.9zm14.8-2.2v5.7c0 3.3-0.3 8.2-2.1 11.2q-0.2-0.2-0.4-0.4-0.2-0.2-0.5-0.3-0.2-0.2-0.4-0.3-0.3-0.2-0.5-0.3c1.6-2.8 1.7-6.9 1.7-9.9v-7.7h8.9c-0.3-0.7-0.6-1.5-0.9-2.1l2.2-0.5q0.1 0.3 0.3 0.6 0.2 0.3 0.3 0.7 0.2 0.3 0.3 0.6 0.1 0.3 0.3 0.7h7.8v2zm6.5 0.9q-0.2 0.5-0.4 1-0.2 0.4-0.4 0.9-0.2 0.5-0.4 0.9-0.2 0.5-0.5 1v12h-2v-9q-0.2 0.3-0.4 0.5-0.2 0.2-0.3 0.4-0.2 0.2-0.4 0.4-0.2 0.2-0.5 0.4 0-0.2-0.1-0.5-0.2-0.3-0.3-0.5-0.1-0.3-0.2-0.5-0.1-0.2-0.3-0.5 0.7-0.7 1.4-1.6 0.6-0.8 1.1-1.7 0.5-0.9 0.9-1.8 0.4-1 0.7-2zm10.6 5h-2.4v8.3c0 1.2-0.3 1.8-1 2.1q-0.5 0.2-1 0.3-0.4 0.1-0.9 0.1-0.5 0.1-1 0.1-0.4 0-0.9-0.1-0.1-0.2-0.1-0.5-0.1-0.3-0.2-0.5-0.1-0.3-0.2-0.6-0.1-0.2-0.2-0.5c1.3 0.1 2.5 0.1 2.9 0.1 0.3-0.1 0.5-0.1 0.5-0.5v-8.3h-6.5v-2h6.5v-3.3h2.1v3.3h2.4zm-8.7 1.3q0.4 0.5 0.7 1.1 0.3 0.5 0.7 1.1 0.3 0.5 0.6 1.1 0.2 0.5 0.5 1.1l-1.8 0.8q-0.2-0.5-0.5-1.1-0.3-0.6-0.6-1.2-0.3-0.5-0.6-1.1-0.4-0.5-0.7-1.1zm32.2-5.8h-12.2v-5h12.2zm0.6 10.1c-1 0.5-2 1.1-3 1.6q0.4 0.3 0.8 0.6 0.4 0.3 0.9 0.5 0.5 0.2 0.9 0.4 0.5 0.2 1 0.3-0.2 0.2-0.3 0.4-0.2 0.2-0.4 0.4-0.1 0.2-0.3 0.4-0.1 0.2-0.2 0.5-1.2-0.4-2.1-1-1-0.6-1.9-1.4-0.8-0.9-1.4-1.8-0.7-1-1-2.1-0.3 0.2-0.6 0.5-0.3 0.2-0.7 0.4-0.3 0.3-0.6 0.5-0.3 0.2-0.7 0.4v2.3l3.6-0.7q0 0.2-0.1 0.4 0 0.2 0 0.4 0 0.2 0 0.4 0 0.1 0.1 0.3c-4.3 1.1-5 1.3-5.4 1.6v-0.1q-0.1-0.2-0.1-0.4-0.1-0.1-0.2-0.3-0.1-0.2-0.2-0.4-0.1-0.2-0.2-0.4 0.2-0.1 0.3-0.2 0.2-0.2 0.3-0.4 0.1-0.2 0.2-0.4 0-0.2 0-0.4v-0.8q-0.3 0.1-0.5 0.3-0.3 0.1-0.6 0.2-0.3 0.1-0.6 0.2-0.2 0.1-0.5 0.2-0.1-0.2-0.2-0.3-0.2-0.2-0.3-0.4-0.1-0.1-0.3-0.3-0.1-0.2-0.2-0.3c-2.1 0.6-4.2 1.3-6 1.7l-0.4-1.9q1.1-0.3 2.5-0.6v-6.1h-2v-1.9h2v-4.7h-2.2v-2h6.1v2h-2.1v4.7h1.9v1.9h-1.9v5.5c0.7-0.1 1.3-0.4 2-0.5l0.2 1.6q0.7-0.2 1.4-0.4 0.7-0.2 1.3-0.5 0.7-0.3 1.3-0.6 0.6-0.4 1.2-0.8h-3.1v-4.8h11.1v4.9h-4.1q0.2 0.2 0.3 0.5 0.1 0.2 0.3 0.4 0.1 0.3 0.3 0.5 0.2 0.2 0.3 0.5 0.4-0.2 0.7-0.4 0.4-0.2 0.7-0.5 0.3-0.2 0.6-0.4 0.3-0.2 0.7-0.5zm-9.2-13.5h-1.8v2h1.8zm6.7 0h-1.9v1.9h1.9zm2.6 6.2h-13.8v-1.7h13.8zm-10.5 4.4h7.2v-1.8h-7.2zm4.5-10.5h-1.8v1.9h1.8zm29.4 1h-11.6v-1.7h4.8c-0.2-0.5-0.3-0.9-0.5-1.3l1.9-0.4q0.2 0.2 0.3 0.4 0.1 0.2 0.1 0.4 0.1 0.2 0.2 0.4 0.1 0.3 0.2 0.5h4.6zm0.6 4.2h-12.8v-1.8h3c-0.2-0.6-0.4-1.3-0.6-1.9l1.7-0.4q0.1 0.3 0.2 0.5 0.2 0.3 0.3 0.6 0.1 0.2 0.1 0.5 0.1 0.3 0.2 0.6l-0.4 0.1h3.2c0.3-0.7 0.6-1.6 0.8-2.3l2 0.4c-0.3 0.7-0.6 1.3-0.9 1.9h3.2zm-13 8c-2.3 0.9-4.8 1.9-6.8 2.7l-0.7-2.2c0.7-0.2 1.7-0.5 2.7-0.9v-7.6h-2.4v-2h2.4v-5.2h2.1v5.2h2.1v2h-2.1v6.8l2.3-0.8zm10.8 3.6q0 0 0.1 0 0.1 0 0.2 0 0.1 0 0.2 0 0 0 0.1 0 0.1-0.1 0.1-0.1 0.1-0.1 0.1-0.1 0.1-0.1 0.1-0.2 0 0 0-0.1 0.1-0.2 0.1-0.5 0-0.2 0-0.4 0.1-0.3 0.1-0.5 0-0.2 0-0.4 0.2 0.1 0.4 0.2 0.2 0.2 0.4 0.3 0.2 0.1 0.4 0.2 0.2 0.1 0.4 0.2 0 0.2 0 0.5 0 0.3 0 0.6-0.1 0.2-0.1 0.5-0.1 0.3-0.2 0.5 0 0.2-0.1 0.3-0.1 0.1-0.2 0.2-0.1 0.1-0.3 0.2-0.1 0.1-0.3 0.1-0.1 0.1-0.3 0.1-0.2 0-0.4 0.1-0.1 0-0.3 0-0.2 0-0.4 0h-1.5q-0.2 0-0.4 0-0.2 0-0.4-0.1-0.2-0.1-0.4-0.1-0.2-0.1-0.4-0.3c-0.4-0.3-0.6-0.7-0.6-2v-3.1h-1.8c-0.5 3.2-1.6 5-5.9 6q-0.1-0.2-0.2-0.4-0.1-0.3-0.2-0.5-0.2-0.2-0.3-0.4-0.2-0.2-0.4-0.4c3.7-0.7 4.6-1.9 4.9-4.3h-2.2v-6.7h10.7v6.7h-2.6v3.2c0 0.4 0 0.6 0.2 0.6q0 0.1 0.1 0.1 0 0 0.1 0 0.1 0.1 0.1 0.1 0.1 0 0.2-0.1zm-7.7-7.9h6.6v-1.2h-6.6zm0 2.6h6.6v-1.3h-6.6zm21.1-13.1q-0.2 0.6-0.5 1.3-0.2 0.6-0.5 1.2-0.3 0.6-0.6 1.2-0.4 0.6-0.7 1.1v15.6h-2v-12.4q-0.3 0.3-0.5 0.6-0.3 0.3-0.5 0.6-0.3 0.3-0.5 0.6-0.3 0.3-0.6 0.5-0.1-0.2-0.2-0.5-0.2-0.3-0.3-0.6-0.2-0.2-0.3-0.5-0.2-0.3-0.4-0.5 1-0.9 1.8-2 0.8-1 1.5-2.1 0.7-1.1 1.3-2.3 0.6-1.2 1-2.4zm4.1 13.7q-0.4 0.8-0.8 1.5-0.5 0.7-0.9 1.4-0.5 0.7-1 1.4-0.5 0.7-1 1.3-0.2-0.1-0.4-0.3-0.2-0.2-0.4-0.3-0.2-0.2-0.5-0.3-0.2-0.1-0.4-0.3 0.5-0.5 1-1.1 0.5-0.6 0.9-1.3 0.4-0.6 0.8-1.2 0.4-0.7 0.8-1.4zm3.4-1.5v8.2h-2.1v-8.2h-6.4v-2h6.4v-2.4h-4.8v-7.5h11.9v7.5h-5v2.4h6.3v2zm-4.9-6.3h7.7v-3.7h-7.7zm7.6 7.2q0.5 0.6 1 1.2 0.5 0.6 0.9 1.2 0.5 0.6 0.9 1.3 0.5 0.6 0.9 1.3l-1.8 1.1q-0.4-0.7-0.8-1.4-0.4-0.7-0.8-1.3-0.5-0.7-1-1.3-0.4-0.6-1-1.2zm15.2-8.3h-8.2v-1.7h4.1q-0.2-0.4-0.4-0.8-0.2-0.4-0.4-0.8-0.2-0.4-0.4-0.8-0.2-0.3-0.4-0.7l1.6-0.9q0.2 0.4 0.4 0.8 0.3 0.3 0.5 0.7 0.2 0.4 0.4 0.8 0.2 0.4 0.4 0.8l-1.7 0.9h4.1zm-0.7 3h-6.5v-1.6h6.5zm-6.5 1.3h6.5v1.7h-6.5zm6.5 9.8h-4.8v1.1h-1.8v-7.8h6.6zm-4.8-5v3.3h3v-3.3zm7-6.1q-0.5 0.7-1 1.2-0.1-0.2-0.3-0.4-0.1-0.2-0.2-0.4-0.2-0.2-0.3-0.4-0.2-0.2-0.3-0.4 0.5-0.5 0.9-1 0.5-0.6 0.8-1.2 0.4-0.5 0.7-1.2 0.3-0.6 0.5-1.3l1.3 0.4v-1.1h-3.5v-1.6h3.5v-1.3h1.8v4.1h-1.6l0.2 0.1q0 0.1-0.1 0.3-0.1 0.2-0.1 0.3-0.1 0.2-0.2 0.4-0.1 0.1-0.1 0.3h2.5c-0.1-0.5-0.3-0.9-0.4-1.3l1.9-0.5v0.1-3.8h1.9v1.3h3.3v1.6h-3.3v1.2h-1.8q0.1 0.2 0.2 0.3 0 0.2 0.1 0.4 0.1 0.2 0.1 0.3 0.1 0.2 0.1 0.4h4.1v1.4h-4.3v0.9h3.7v1.2h-3.7v1h3.7v1.1h-3.7v1h4.8v1.4h-9.4v0.4h-1.8zm4.7 0.3h-2.9v0.9h2.9zm0 2.2h-2.9v1h2.9zm0-4.3h-2.9v1h2.9zm5.6 8q-0.3 0.5-0.6 1-0.4 0.5-0.8 0.9-0.5 0.5-0.9 0.9-0.5 0.4-1 0.7 0.5 0.2 1.1 0.3 0.6 0.2 1.2 0.3 0.6 0.2 1.2 0.3 0.6 0.1 1.2 0.1-0.2 0.2-0.4 0.4-0.2 0.2-0.3 0.4-0.2 0.3-0.3 0.5-0.1 0.2-0.2 0.4-0.8-0.1-1.5-0.2-0.7-0.2-1.4-0.4-0.7-0.2-1.3-0.5-0.7-0.2-1.4-0.5-0.7 0.3-1.4 0.5-0.8 0.3-1.5 0.5-0.8 0.2-1.5 0.4-0.8 0.2-1.6 0.3-0.1-0.3-0.2-0.5-0.1-0.2-0.2-0.4-0.1-0.2-0.2-0.4-0.2-0.3-0.3-0.4 0.6-0.1 1.3-0.2 0.6-0.1 1.2-0.3 0.7-0.1 1.3-0.3 0.6-0.2 1.2-0.4-0.3-0.2-0.6-0.5-0.3-0.2-0.6-0.5-0.3-0.3-0.6-0.6-0.2-0.3-0.5-0.6l0.8-0.3h-2.5v-1.5h9.7 0.4zm-7.6 0.9q0.2 0.2 0.5 0.5 0.3 0.2 0.6 0.4 0.2 0.2 0.5 0.4 0.3 0.2 0.7 0.4 0.3-0.2 0.6-0.4 0.3-0.2 0.6-0.4 0.3-0.2 0.6-0.4 0.3-0.3 0.6-0.5zm32-6.8c0 0 0 0.6 0 0.9-0.3 6.8-0.6 9.4-1.2 10.2q-0.2 0.2-0.4 0.4-0.1 0.1-0.4 0.2-0.2 0.1-0.4 0.2-0.2 0.1-0.5 0.1-0.3 0-0.7 0-0.4 0-0.8 0.1-0.3 0-0.7-0.1-0.4 0-0.7 0-0.1-0.2-0.1-0.5 0-0.3-0.1-0.5-0.1-0.3-0.2-0.5-0.1-0.3-0.2-0.5 0.3 0 0.6 0.1 0.3 0 0.6 0 0.3 0 0.6 0 0.4 0 0.7 0 0.1 0 0.2 0 0.1 0 0.2 0 0.1-0.1 0.2-0.1 0.1-0.1 0.2-0.2c0.4-0.5 0.7-2.5 0.9-7.9h-13.4c-0.4 3.3-1.2 6.9-3 9.6q-0.2-0.2-0.4-0.4-0.2-0.2-0.4-0.3-0.3-0.2-0.5-0.4-0.2-0.1-0.5-0.3c2.6-3.6 2.8-8.8 2.8-12.5v-5.5h16v6.2h-13.9q0 0.8 0 1.7zm-12 9.6v1.3h-2v-7.4h8.9v6.1zm-3.5-15.7v2.5h11.7v-2.5zm3.5 11.3v2.6h4.8v-2.6z"/>
		</g>
		<path id="Path_19862" fill-rule="evenodd" class="s1" d="m92.2 53.2v8.4h-0.8v-6.8l-3.3 5.7h-0.5l-3.3-5.6v6.7h-0.8v-8.4h0.7l3.7 6.2 3.6-6.2zm2.5 2h0.9v6.4h-0.9zm0.4-1.4q0 0-0.1 0 0-0.1-0.1-0.1-0.1 0-0.1 0-0.1-0.1-0.1-0.1 0-0.1-0.1-0.1 0-0.1 0-0.1-0.1-0.1-0.1-0.1 0-0.1 0-0.1 0-0.1 0-0.2 0 0 0.1-0.1 0 0 0-0.1 0.1 0 0.1-0.1 0 0 0.1 0 0-0.1 0.1-0.1 0.1 0 0.1 0 0.1 0 0.1 0 0.1 0 0.2 0 0 0 0.1 0 0 0 0.1 0.1 0 0 0.1 0 0 0.1 0.1 0.1 0 0.1 0 0.1 0 0.1 0.1 0.1 0 0.1 0 0.1 0 0.1 0 0.2 0 0-0.1 0.1 0 0 0 0.1-0.1 0-0.1 0.1-0.1 0-0.1 0.1-0.1 0-0.1 0-0.1 0-0.1 0.1-0.1 0-0.2 0zm5 1.3q0.3 0 0.5 0 0.3 0 0.5 0.1 0.3 0.1 0.5 0.2 0.2 0.2 0.4 0.3 0.2 0.2 0.3 0.4 0.2 0.2 0.3 0.5 0 0.2 0.1 0.5 0 0.2 0 0.5v3.9h-0.8v-1q-0.1 0.1-0.2 0.2-0.1 0.1-0.2 0.2-0.1 0.1-0.2 0.2-0.1 0.1-0.3 0.1-0.1 0.1-0.3 0.2-0.2 0-0.3 0.1-0.2 0-0.4 0-0.1 0-0.3 0-0.2 0-0.5 0-0.2 0-0.4-0.1-0.2 0-0.4-0.1-0.2-0.1-0.4-0.3-0.1-0.1-0.3-0.2-0.1-0.2-0.2-0.4 0-0.1-0.1-0.3 0-0.2 0-0.4 0-0.2 0-0.4 0.1-0.2 0.1-0.3 0.1-0.2 0.2-0.3 0.1-0.2 0.3-0.3 0.2-0.1 0.4-0.3 0.2-0.1 0.5-0.1 0.2-0.1 0.4-0.1 0.3 0 0.5 0h2v-0.4q0-0.2 0-0.3 0-0.2-0.1-0.4 0-0.1-0.1-0.3-0.1-0.1-0.2-0.2-0.2-0.1-0.3-0.2-0.2-0.1-0.4-0.2-0.1 0-0.3 0-0.2-0.1-0.4-0.1-0.1 0-0.3 0.1-0.1 0-0.2 0-0.2 0-0.3 0.1-0.2 0-0.3 0-0.1 0.1-0.3 0.1-0.1 0.1-0.2 0.2-0.1 0-0.2 0.1-0.2 0.1-0.3 0.2l-0.3-0.6q0.1-0.1 0.2-0.2 0.2-0.1 0.3-0.2 0.1-0.1 0.3-0.2 0.2 0 0.3-0.1 0.2 0 0.4-0.1 0.1 0 0.3 0 0.2-0.1 0.4-0.1 0.1 0 0.3 0zm-0.3 5.8q0.2 0 0.4-0.1 0.1 0 0.3 0 0.1-0.1 0.3-0.1 0.1-0.1 0.3-0.2 0.1-0.1 0.2-0.2 0.1-0.1 0.2-0.2 0.1-0.1 0.2-0.3 0.1-0.1 0.1-0.2v-1.1h-1.9q-1.7 0-1.7 1.2 0 0.1 0.1 0.2 0 0.1 0 0.2 0.1 0.2 0.2 0.3 0.1 0.1 0.2 0.1 0.1 0.1 0.2 0.2 0.2 0 0.3 0.1 0.2 0 0.3 0 0.2 0.1 0.3 0.1zm7.8 0.6q-0.2 0-0.4 0-0.3 0-0.5-0.1-0.2 0-0.4-0.1-0.2-0.1-0.4-0.2-0.1-0.1-0.3-0.2-0.2-0.1-0.3-0.3-0.2-0.1-0.3-0.3-0.1-0.2-0.2-0.3-0.1-0.2-0.2-0.4-0.1-0.2-0.1-0.4-0.1-0.2-0.1-0.5 0-0.2 0-0.4 0-0.2 0-0.4 0-0.2 0.1-0.4 0-0.3 0.1-0.5 0.1-0.2 0.2-0.3 0.1-0.2 0.2-0.4 0.1-0.2 0.3-0.3 0.1-0.1 0.3-0.3 0.2-0.1 0.3-0.2 0.2-0.1 0.4-0.2 0.2 0 0.4-0.1 0.2-0.1 0.5-0.1 0.2 0 0.4 0 0.2 0 0.4 0 0.2 0 0.4 0.1 0.2 0.1 0.4 0.1 0.2 0.1 0.4 0.2 0.2 0.1 0.4 0.2 0.1 0.2 0.3 0.3 0.1 0.1 0.2 0.3 0.2 0.2 0.3 0.4 0.1 0.1 0.2 0.3 0 0.2 0.1 0.5 0 0.2 0.1 0.4 0 0.2 0 0.4 0 0.2 0 0.4-0.1 0.3-0.1 0.5-0.1 0.2-0.1 0.4-0.1 0.2-0.2 0.4-0.1 0.1-0.3 0.3-0.1 0.2-0.2 0.3-0.2 0.2-0.3 0.3-0.2 0.1-0.4 0.2-0.2 0.1-0.4 0.2-0.2 0.1-0.4 0.1-0.2 0.1-0.4 0.1-0.2 0-0.4 0zm0-0.7q0.1 0 0.3 0 0.2-0.1 0.3-0.1 0.2 0 0.3-0.1 0.1-0.1 0.3-0.1 0.1-0.1 0.2-0.2 0.2-0.1 0.3-0.2 0.1-0.1 0.2-0.2 0-0.2 0.1-0.3 0.1-0.2 0.2-0.3 0-0.2 0-0.3 0.1-0.2 0.1-0.4 0-0.1 0-0.3 0-0.2 0-0.3 0-0.2-0.1-0.4 0-0.1 0-0.3-0.1-0.1-0.2-0.3-0.1-0.1-0.1-0.2-0.1-0.2-0.2-0.3-0.1-0.1-0.3-0.2-0.1-0.1-0.2-0.1-0.2-0.1-0.3-0.2-0.1 0-0.3-0.1-0.1 0-0.3 0-0.2-0.1-0.3-0.1-0.2 0-0.3 0.1-0.2 0-0.3 0-0.2 0.1-0.3 0.1-0.2 0.1-0.3 0.2-0.2 0-0.3 0.1-0.1 0.1-0.2 0.2-0.1 0.1-0.2 0.3-0.1 0.1-0.2 0.2 0 0.2-0.1 0.3-0.1 0.2-0.1 0.3 0 0.2-0.1 0.4 0 0.1 0 0.3 0 0.2 0 0.3 0.1 0.2 0.1 0.4 0 0.1 0.1 0.3 0.1 0.1 0.1 0.3 0.1 0.1 0.2 0.3 0.1 0.1 0.2 0.2 0.1 0.1 0.2 0.2 0.1 0.1 0.3 0.2 0.1 0 0.3 0.1 0.1 0.1 0.3 0.1 0.1 0 0.3 0 0.1 0.1 0.3 0.1zm4.9-8.2h0.9v8.9h-0.9zm3.2 2.6h0.9v6.3h-0.9zm0.4-1.4q0 0-0.1 0-0.1 0-0.1-0.1-0.1 0-0.1 0-0.1-0.1-0.1-0.1-0.1 0-0.1-0.1 0 0 0-0.1-0.1-0.1-0.1-0.1 0-0.1 0-0.1 0-0.1 0-0.1 0-0.1 0.1-0.2 0 0 0-0.1 0 0 0.1 0 0-0.1 0.1-0.1 0-0.1 0.1-0.1 0 0 0.1 0 0.1 0 0.1 0 0.1 0 0.2 0 0 0 0.1 0 0 0 0.1 0.1 0 0 0.1 0 0 0.1 0.1 0.1 0 0.1 0 0.1 0 0.1 0 0.1 0.1 0.1 0.1 0.2 0 0-0.1 0.1 0 0 0 0.1 0 0.1 0 0.1-0.1 0.1-0.1 0.1-0.1 0-0.1 0.1-0.1 0-0.1 0-0.1 0.1-0.1 0.1-0.1 0-0.2 0zm12 6.9v0.8h-5.9v-8.4h5.8v0.7h-4.9v3h4.3v0.8h-4.3v3.1zm5.1-5.6q0.3 0 0.5 0 0.3 0.1 0.5 0.2 0.3 0.1 0.5 0.2 0.2 0.1 0.4 0.3 0.2 0.2 0.3 0.4 0.2 0.3 0.2 0.5 0.1 0.3 0.2 0.6 0 0.2 0 0.5v3.7h-0.9v-3.6q0-0.2 0-0.4 0-0.2-0.1-0.4 0-0.2-0.1-0.4-0.1-0.2-0.3-0.3-0.1-0.1-0.3-0.2-0.1-0.1-0.3-0.2-0.2-0.1-0.4-0.1-0.2 0-0.4 0-0.2 0-0.4 0-0.2 0-0.4 0.1-0.2 0.1-0.4 0.2-0.2 0.1-0.4 0.3-0.1 0.2-0.2 0.3-0.2 0.2-0.2 0.5-0.1 0.2-0.1 0.4-0.1 0.2-0.1 0.5v3.3h-0.8v-6.3h0.8v1.1q0.1-0.1 0.2-0.3 0.1-0.1 0.2-0.2 0.1-0.1 0.3-0.2 0.1-0.1 0.3-0.2 0.1-0.1 0.3-0.1 0.2-0.1 0.4-0.1 0.1-0.1 0.3-0.1 0.2 0 0.4 0zm10.1 0.1l-2.8 6.3h-0.9l-2.8-6.3h0.9l2.3 5.3 2.4-5.3zm1.2 0h0.8v6.3h-0.8zm0.4-1.4q0 0-0.1 0-0.1 0-0.1-0.1-0.1 0-0.1 0-0.1 0-0.1-0.1-0.1 0-0.1-0.1 0 0-0.1-0.1 0 0 0-0.1 0-0.1 0-0.1 0-0.1 0-0.1 0-0.1 0.1-0.2 0 0 0-0.1 0 0 0.1 0 0-0.1 0.1-0.1 0-0.1 0.1-0.1 0 0 0.1 0 0.1 0 0.1 0 0.1 0 0.1 0 0.1 0 0.2 0 0 0 0.1 0.1 0 0 0.1 0.1 0 0 0 0 0.1 0.1 0.1 0.1 0 0.1 0 0.2 0.1 0 0.1 0.1 0 0-0.1 0.1 0 0 0 0.1 0 0.1 0 0.1-0.1 0.1-0.1 0.1-0.1 0.1-0.1 0.1-0.1 0-0.1 0-0.1 0.1-0.1 0.1-0.1 0-0.2 0zm3.6 2.6q0.1-0.1 0.2-0.3 0.1-0.1 0.2-0.2 0.1-0.2 0.2-0.3 0.2-0.1 0.3-0.2 0.2 0 0.4-0.1 0.1-0.1 0.3-0.1 0.2 0 0.4-0.1 0.2 0 0.4 0v0.9l-0.2-0.1q-0.2 0-0.5 0.1-0.2 0-0.4 0.1-0.2 0.1-0.4 0.2-0.1 0.1-0.3 0.3-0.1 0.1-0.2 0.3-0.2 0.2-0.2 0.5-0.1 0.2-0.1 0.4-0.1 0.2 0 0.5v3.2h-0.9v-6.3h0.8zm6.4 5.1q-0.2 0-0.4 0-0.2 0-0.4-0.1-0.2 0-0.4-0.1-0.2-0.1-0.4-0.2-0.2-0.1-0.4-0.2-0.1-0.2-0.3-0.3-0.1-0.1-0.3-0.3-0.1-0.2-0.2-0.4-0.1-0.1-0.2-0.3-0.1-0.2-0.1-0.5-0.1-0.2-0.1-0.4 0-0.2 0-0.4 0-0.2 0-0.4 0-0.3 0.1-0.5 0-0.2 0.1-0.4 0.1-0.2 0.2-0.4 0.1-0.1 0.2-0.3 0.2-0.2 0.3-0.3 0.2-0.2 0.3-0.3 0.2-0.1 0.4-0.2 0.2-0.1 0.4-0.2 0.2-0.1 0.4-0.1 0.2-0.1 0.4-0.1 0.2 0 0.4 0 0.2 0 0.4 0 0.3 0 0.5 0.1 0.2 0 0.4 0.1 0.2 0.1 0.4 0.2 0.1 0.1 0.3 0.2 0.2 0.1 0.3 0.3 0.2 0.1 0.3 0.3 0.1 0.2 0.2 0.3 0.1 0.2 0.2 0.4 0.1 0.2 0.1 0.4 0.1 0.2 0.1 0.5 0 0.2 0 0.4 0 0.2 0 0.4 0 0.2-0.1 0.4 0 0.3-0.1 0.5-0.1 0.2-0.2 0.3-0.1 0.2-0.2 0.4-0.1 0.2-0.3 0.3-0.1 0.1-0.3 0.3-0.2 0.1-0.3 0.2-0.2 0.1-0.4 0.2-0.2 0.1-0.4 0.1-0.2 0.1-0.5 0.1-0.2 0-0.4 0zm0-0.7q0.2 0 0.3-0.1 0.2 0 0.3 0 0.2-0.1 0.3-0.1 0.2-0.1 0.3-0.2 0.2 0 0.3-0.1 0.1-0.1 0.2-0.2 0.1-0.1 0.2-0.3 0.1-0.1 0.2-0.2 0-0.2 0.1-0.3 0-0.2 0.1-0.3 0-0.2 0-0.4 0.1-0.1 0.1-0.3 0-0.2-0.1-0.3 0-0.2 0-0.4-0.1-0.1-0.1-0.3-0.1-0.1-0.1-0.3-0.1-0.1-0.2-0.3-0.1-0.1-0.2-0.2-0.1-0.1-0.2-0.2-0.1-0.1-0.3-0.2-0.1 0-0.3-0.1-0.1-0.1-0.3-0.1-0.1 0-0.3-0.1-0.1 0-0.3 0-0.1 0-0.3 0-0.2 0.1-0.3 0.1-0.2 0-0.3 0.1-0.2 0.1-0.3 0.1-0.1 0.1-0.2 0.2-0.2 0.1-0.3 0.2-0.1 0.1-0.2 0.2-0.1 0.2-0.1 0.3-0.1 0.2-0.2 0.3 0 0.2-0.1 0.3 0 0.2 0 0.4 0 0.1 0 0.3 0 0.2 0 0.3 0 0.2 0 0.4 0.1 0.1 0.1 0.3 0.1 0.1 0.2 0.3 0 0.1 0.1 0.2 0.1 0.2 0.2 0.3 0.1 0.1 0.3 0.2 0.1 0.1 0.2 0.1 0.1 0.1 0.3 0.2 0.1 0 0.3 0.1 0.1 0 0.3 0 0.2 0 0.3 0.1zm8.1-5.7q0.3 0 0.6 0 0.2 0.1 0.5 0.1 0.2 0.1 0.4 0.3 0.2 0.1 0.4 0.3 0.2 0.2 0.4 0.4 0.1 0.3 0.2 0.5 0.1 0.3 0.1 0.5 0.1 0.3 0 0.6v3.6h-0.8v-3.5q0-0.2 0-0.4 0-0.2-0.1-0.4-0.1-0.2-0.2-0.4-0.1-0.2-0.2-0.3-0.1-0.2-0.3-0.3-0.2-0.1-0.4-0.1-0.1-0.1-0.3-0.1-0.2-0.1-0.4 0-0.2-0.1-0.4 0-0.3 0-0.5 0.1-0.2 0.1-0.4 0.2-0.2 0.1-0.3 0.3-0.2 0.1-0.3 0.3-0.1 0.2-0.2 0.4-0.1 0.3-0.1 0.5 0 0.2 0 0.4v3.3h-0.9v-6.3h0.8v1.2q0.1-0.1 0.2-0.3 0.1-0.1 0.3-0.2 0.1-0.1 0.2-0.2 0.2-0.1 0.3-0.2 0.2-0.1 0.4-0.1 0.1-0.1 0.3-0.1 0.2-0.1 0.4-0.1 0.2 0 0.3 0zm12.8 0q0.3 0 0.5 0 0.3 0 0.5 0.1 0.2 0.1 0.5 0.3 0.2 0.1 0.4 0.3 0.2 0.2 0.3 0.4 0.1 0.3 0.2 0.5 0.1 0.3 0.1 0.5 0.1 0.3 0 0.6v3.6h-0.8v-3.5q0-0.2 0-0.4 0-0.2-0.1-0.4-0.1-0.2-0.2-0.4-0.1-0.2-0.2-0.3-0.1-0.2-0.3-0.3-0.1-0.1-0.3-0.1-0.2-0.1-0.3-0.1-0.2-0.1-0.4 0-0.2-0.1-0.4 0-0.3 0-0.5 0.1-0.2 0.1-0.3 0.2-0.2 0.1-0.4 0.3-0.1 0.1-0.2 0.3-0.1 0.2-0.2 0.4-0.1 0.3-0.1 0.5 0 0.2 0 0.4v3.3h-0.9v-3.5q0-0.2 0-0.4 0-0.2-0.1-0.4 0-0.2-0.1-0.4-0.1-0.2-0.3-0.3-0.1-0.2-0.2-0.3-0.2-0.1-0.4-0.1-0.1-0.1-0.3-0.1-0.2-0.1-0.4 0-0.2-0.1-0.4 0-0.2 0-0.4 0.1-0.2 0.1-0.4 0.2-0.2 0.1-0.3 0.3-0.2 0.1-0.3 0.3-0.1 0.2-0.2 0.4-0.1 0.3-0.1 0.5 0 0.2 0 0.4v3.3h-0.9v-6.3h0.9v1.2q0-0.2 0.1-0.3 0.1-0.1 0.3-0.2 0.1-0.1 0.2-0.2 0.1-0.1 0.3-0.2 0.1-0.1 0.3-0.1 0.2-0.1 0.4-0.1 0.1-0.1 0.3-0.1 0.2 0 0.4 0 0.1 0 0.3 0 0.2 0 0.4 0.1 0.2 0 0.3 0.1 0.2 0 0.3 0.1 0.2 0.1 0.3 0.2 0.1 0.1 0.3 0.3 0.1 0.1 0.2 0.2 0 0.2 0.1 0.3 0.1-0.1 0.2-0.3 0.1-0.1 0.2-0.2 0.2-0.2 0.3-0.3 0.2-0.1 0.3-0.2 0.2 0 0.4-0.1 0.1-0.1 0.3-0.1 0.2-0.1 0.4-0.1 0.2 0 0.4 0zm10.4 3.5h-5.3q0 0.2 0 0.4 0.1 0.2 0.2 0.4 0.1 0.2 0.2 0.4 0.2 0.2 0.3 0.3 0.2 0.2 0.4 0.3 0.2 0.1 0.4 0.2 0.3 0.1 0.5 0.1 0.2 0.1 0.5 0.1 0.1 0 0.2-0.1 0.2 0 0.3 0 0.1 0 0.3-0.1 0.1 0 0.2-0.1 0.2 0 0.3-0.1 0.1 0 0.2-0.1 0.1-0.1 0.2-0.2 0.1-0.1 0.2-0.2l0.5 0.6q-0.1 0.1-0.3 0.2-0.1 0.1-0.2 0.2-0.1 0.1-0.3 0.2-0.1 0.1-0.3 0.1-0.1 0.1-0.3 0.2-0.2 0-0.4 0-0.1 0.1-0.3 0.1-0.2 0-0.4 0-0.2 0-0.4 0-0.2 0-0.5-0.1-0.2 0-0.4-0.1-0.2-0.1-0.4-0.2-0.2-0.1-0.3-0.2-0.2-0.2-0.4-0.3-0.1-0.1-0.2-0.3-0.2-0.2-0.3-0.4-0.1-0.1-0.1-0.3-0.1-0.2-0.2-0.5 0-0.2-0.1-0.4 0-0.2 0-0.4 0-0.2 0-0.4 0.1-0.3 0.1-0.5 0.1-0.2 0.1-0.4 0.1-0.2 0.2-0.4 0.1-0.1 0.2-0.3 0.2-0.2 0.3-0.3 0.1-0.2 0.3-0.3 0.2-0.1 0.3-0.2 0.2-0.1 0.4-0.2 0.2-0.1 0.4-0.1 0.2-0.1 0.4-0.1 0.2 0 0.4 0 0.2 0 0.4 0 0.2 0 0.4 0.1 0.2 0 0.4 0.1 0.2 0.1 0.4 0.2 0.1 0.1 0.3 0.2 0.2 0.1 0.3 0.3 0.1 0.1 0.3 0.3 0.1 0.2 0.2 0.3 0.1 0.2 0.2 0.4 0 0.2 0.1 0.4 0 0.2 0.1 0.5 0 0.2 0 0.4zm-3.1-2.7q-0.2-0.1-0.4 0-0.2 0-0.4 0.1-0.2 0.1-0.4 0.2-0.1 0.1-0.3 0.2-0.2 0.2-0.3 0.4-0.1 0.1-0.2 0.3-0.1 0.2-0.1 0.4-0.1 0.2-0.1 0.5h4.5q0-0.3-0.1-0.5 0-0.2-0.1-0.4-0.1-0.2-0.2-0.3-0.2-0.2-0.3-0.4-0.2-0.1-0.4-0.2-0.1-0.1-0.3-0.2-0.2-0.1-0.4-0.1-0.3-0.1-0.5 0zm8-0.8q0.3 0 0.5 0 0.3 0.1 0.5 0.2 0.3 0.1 0.5 0.2 0.2 0.1 0.4 0.3 0.2 0.2 0.3 0.5 0.2 0.2 0.3 0.4 0.1 0.3 0.1 0.6 0 0.2 0 0.5v3.7h-0.8v-3.6q0-0.2-0.1-0.4 0-0.2 0-0.4-0.1-0.2-0.2-0.4-0.1-0.1-0.2-0.3-0.2-0.1-0.3-0.2-0.2-0.1-0.4-0.2-0.2-0.1-0.4-0.1-0.1 0-0.3 0-0.3 0-0.5 0-0.2 0-0.4 0.1-0.2 0.1-0.4 0.2-0.2 0.1-0.3 0.3-0.2 0.2-0.3 0.4-0.1 0.2-0.2 0.4-0.1 0.2-0.1 0.4-0.1 0.2 0 0.5v3.3h-0.9v-6.3h0.8v1.1q0.1-0.1 0.2-0.2 0.1-0.2 0.2-0.3 0.2-0.1 0.3-0.2 0.1-0.1 0.3-0.2 0.2 0 0.3-0.1 0.2-0.1 0.4-0.1 0.2 0 0.4-0.1 0.1 0 0.3 0zm8.2 6q0 0.1-0.1 0.1-0.1 0.1-0.2 0.1 0 0-0.1 0.1-0.1 0-0.2 0-0.1 0.1-0.1 0.1-0.1 0-0.2 0-0.1 0-0.2 0-0.1 0-0.2 0-0.2 0.1-0.4 0-0.2 0-0.3-0.1-0.2 0-0.4-0.1-0.1-0.1-0.3-0.2-0.1-0.2-0.2-0.3-0.1-0.2-0.2-0.4 0-0.1 0-0.3-0.1-0.2-0.1-0.4v-3.8h-1.1v-0.7h1.1v-1.4h0.9v1.4h1.9v0.7h-1.9v3.8q0 0.1 0 0.2 0 0.1 0.1 0.2 0 0.1 0 0.2 0.1 0.1 0.2 0.2 0.1 0.1 0.2 0.2 0 0 0.2 0 0.1 0.1 0.2 0.1 0.1 0 0.2 0 0.1 0 0.1 0 0.1 0 0.1 0 0.1 0 0.2 0 0-0.1 0.1-0.1 0.1 0 0.1 0 0.1 0 0.1-0.1 0.1 0 0.1 0 0.1-0.1 0.1-0.1zm3.8-6q0.2 0 0.5 0 0.2 0.1 0.5 0.1 0.2 0.1 0.4 0.2 0.3 0.2 0.5 0.3 0.1 0.2 0.3 0.4 0.1 0.2 0.2 0.5 0.1 0.2 0.1 0.5 0 0.2 0 0.5v3.9h-0.8v-1q-0.1 0.1-0.2 0.2-0.1 0.1-0.2 0.2-0.1 0.1-0.2 0.2-0.1 0.1-0.2 0.2-0.2 0-0.4 0.1-0.1 0-0.3 0.1-0.2 0-0.3 0-0.2 0-0.4 0-0.2 0-0.4 0-0.2 0-0.5-0.1-0.2 0-0.4-0.1-0.2-0.1-0.4-0.3-0.1-0.1-0.2-0.2-0.1-0.2-0.2-0.4-0.1-0.1-0.1-0.3-0.1-0.2-0.1-0.4 0-0.2 0.1-0.4 0-0.2 0.1-0.3 0-0.2 0.2-0.3 0.1-0.2 0.2-0.3 0.2-0.1 0.4-0.2 0.3-0.1 0.5-0.2 0.2-0.1 0.5-0.1 0.2 0 0.5 0h2v-0.4q0-0.1-0.1-0.3 0-0.2 0-0.3-0.1-0.2-0.2-0.4-0.1-0.1-0.2-0.2-0.1-0.1-0.3-0.2-0.1-0.1-0.3-0.2-0.2 0-0.4 0-0.1-0.1-0.3 0-0.2 0-0.3 0-0.2 0-0.3 0-0.2 0-0.3 0.1-0.1 0-0.3 0.1-0.1 0-0.2 0.1-0.2 0-0.3 0.1-0.1 0.1-0.2 0.1-0.1 0.1-0.2 0.2l-0.4-0.6q0.1-0.1 0.3-0.2 0.1-0.1 0.2-0.2 0.2-0.1 0.3-0.2 0.2 0 0.3-0.1 0.2 0 0.4-0.1 0.2 0 0.3 0 0.2-0.1 0.4-0.1 0.2 0 0.4 0zm-0.3 5.8q0.1 0 0.3-0.1 0.1 0 0.3 0 0.2-0.1 0.3-0.1 0.1-0.1 0.3-0.2 0.1-0.1 0.2-0.2 0.2-0.1 0.2-0.2 0.1-0.1 0.2-0.2 0.1-0.2 0.2-0.3v-1.1h-2q-1.6 0-1.6 1.2 0 0.1 0 0.2 0 0.1 0.1 0.3 0 0.1 0.1 0.2 0.1 0.1 0.2 0.1 0.1 0.1 0.2 0.2 0.2 0.1 0.3 0.1 0.2 0 0.3 0.1 0.2 0 0.4 0zm5.1-8.3h0.9v8.9h-0.9zm9.7 0.5q0.3 0 0.6 0 0.4 0 0.7 0.1 0.3 0.1 0.6 0.3 0.3 0.1 0.6 0.3 0.2 0.2 0.4 0.5 0.2 0.2 0.3 0.5 0.1 0.3 0.1 0.6 0.1 0.3 0.1 0.6 0 0.2-0.1 0.5 0 0.3-0.1 0.6-0.1 0.3-0.3 0.5-0.2 0.3-0.4 0.5-0.3 0.2-0.6 0.3-0.3 0.2-0.6 0.3-0.3 0.1-0.7 0.1-0.3 0-0.6 0h-2.3v2.7h-0.9v-8.4zm0 4.9q0.2 0.1 0.5 0 0.2 0 0.5-0.1 0.2 0 0.5-0.1 0.2-0.2 0.4-0.3 0.2-0.1 0.3-0.3 0.1-0.2 0.2-0.4 0.1-0.2 0.1-0.4 0.1-0.2 0.1-0.4 0-0.3-0.1-0.5 0-0.2-0.1-0.4-0.1-0.2-0.2-0.4-0.1-0.2-0.3-0.3-0.2-0.2-0.4-0.3-0.3-0.1-0.5-0.2-0.3 0-0.5-0.1-0.3 0-0.5 0h-2.2v4.2zm5.8-1.6q0.1-0.2 0.1-0.3 0.1-0.1 0.3-0.3 0.1-0.1 0.2-0.2 0.1-0.1 0.3-0.2 0.2-0.1 0.3-0.1 0.2-0.1 0.4-0.1 0.2-0.1 0.4-0.1 0.2 0 0.4 0v0.8h-0.2q-0.3 0-0.5 0-0.2 0.1-0.4 0.2-0.2 0-0.4 0.2-0.2 0.1-0.3 0.2-0.2 0.2-0.3 0.4-0.1 0.2-0.2 0.4 0 0.3-0.1 0.5 0 0.2 0 0.5v3.2h-0.8v-6.3h0.8zm6.4 5.1q-0.2 0-0.4 0-0.2-0.1-0.5-0.1-0.2-0.1-0.4-0.1-0.2-0.1-0.4-0.2-0.1-0.1-0.3-0.2-0.2-0.2-0.3-0.3-0.2-0.2-0.3-0.3-0.1-0.2-0.2-0.4-0.1-0.2-0.2-0.4-0.1-0.2-0.1-0.4-0.1-0.2-0.1-0.4 0-0.2 0-0.4 0-0.2 0-0.5 0-0.2 0.1-0.4 0-0.2 0.1-0.4 0.1-0.2 0.2-0.4 0.1-0.2 0.2-0.3 0.1-0.2 0.3-0.3 0.1-0.2 0.3-0.3 0.2-0.1 0.3-0.2 0.2-0.1 0.4-0.2 0.2-0.1 0.4-0.1 0.2-0.1 0.5-0.1 0.2 0 0.4 0 0.2 0 0.4 0 0.2 0 0.4 0.1 0.2 0 0.4 0.1 0.2 0.1 0.4 0.2 0.2 0.1 0.4 0.2 0.1 0.1 0.3 0.3 0.1 0.1 0.3 0.3 0.1 0.1 0.2 0.3 0.1 0.2 0.2 0.4 0 0.2 0.1 0.4 0 0.2 0.1 0.4 0 0.3 0 0.5 0 0.2 0 0.4-0.1 0.2-0.1 0.4-0.1 0.2-0.1 0.4-0.1 0.2-0.2 0.4-0.1 0.2-0.2 0.4-0.2 0.1-0.3 0.3-0.2 0.1-0.3 0.3-0.2 0.1-0.4 0.2-0.2 0.1-0.4 0.2-0.2 0-0.4 0.1-0.2 0-0.4 0.1-0.2 0-0.4 0zm0-0.8q0.1 0 0.3 0 0.2 0 0.3 0 0.2-0.1 0.3-0.1 0.2-0.1 0.3-0.2 0.1 0 0.2-0.1 0.2-0.1 0.3-0.2 0.1-0.2 0.2-0.3 0.1-0.1 0.1-0.2 0.1-0.2 0.2-0.3 0-0.2 0.1-0.4 0-0.1 0-0.3 0-0.2 0-0.3 0-0.2 0-0.4 0-0.1 0-0.3-0.1-0.1-0.1-0.3-0.1-0.2-0.2-0.3 0-0.1-0.1-0.3-0.1-0.1-0.2-0.2-0.1-0.1-0.3-0.2-0.1-0.1-0.2-0.2-0.1-0.1-0.3-0.1-0.1-0.1-0.3-0.1-0.1 0-0.3-0.1-0.2 0-0.3 0-0.2 0-0.3 0-0.2 0.1-0.3 0.1-0.2 0-0.3 0.1-0.2 0-0.3 0.1-0.2 0.1-0.3 0.2-0.1 0.1-0.2 0.2-0.1 0.1-0.2 0.2-0.1 0.2-0.2 0.3 0 0.1-0.1 0.3-0.1 0.2-0.1 0.3 0 0.2 0 0.3-0.1 0.2-0.1 0.4 0 0.1 0.1 0.3 0 0.2 0 0.3 0 0.2 0.1 0.4 0.1 0.1 0.1 0.3 0.1 0.1 0.2 0.2 0.1 0.1 0.2 0.3 0.1 0.1 0.2 0.2 0.1 0.1 0.3 0.1 0.1 0.1 0.3 0.2 0.1 0 0.3 0.1 0.1 0 0.3 0 0.1 0 0.3 0zm8.2 0.4q0 0-0.1 0.1-0.1 0-0.1 0-0.1 0.1-0.2 0.1-0.1 0.1-0.2 0.1 0 0-0.1 0-0.1 0.1-0.2 0.1-0.1 0-0.2 0-0.1 0-0.2 0-0.2 0-0.4 0-0.2 0-0.3-0.1-0.2-0.1-0.4-0.2-0.1-0.1-0.3-0.2-0.1-0.1-0.2-0.3-0.1-0.1-0.1-0.3-0.1-0.2-0.1-0.4-0.1-0.2 0-0.3v-3.9h-1.2v-0.7h1.1v-1.4h0.9v1.4h1.9v0.7h-1.9v3.8q0 0.1 0 0.2 0 0.2 0.1 0.3 0 0.1 0 0.2 0.1 0.1 0.2 0.2 0.1 0 0.2 0.1 0.1 0.1 0.2 0.1 0.1 0 0.2 0.1 0.1 0 0.2 0 0.1 0 0.1 0 0.1 0 0.2-0.1 0 0 0.1 0 0 0 0.1 0 0.1 0 0.1-0.1 0.1 0 0.1 0 0.1-0.1 0.1-0.1 0.1 0 0.1-0.1zm6.8-2.5h-5.3q0 0.3 0.1 0.5 0.1 0.2 0.1 0.4 0.1 0.2 0.3 0.4 0.1 0.2 0.3 0.3 0.2 0.2 0.4 0.3 0.2 0.1 0.4 0.2 0.2 0.1 0.4 0.1 0.3 0 0.5 0 0.2 0 0.3 0 0.1 0 0.3 0 0.1-0.1 0.2-0.1 0.2 0 0.3-0.1 0.1 0 0.2-0.1 0.1-0.1 0.3-0.1 0.1-0.1 0.2-0.2 0.1-0.1 0.1-0.2l0.5 0.6q-0.1 0.1-0.2 0.2-0.1 0.1-0.3 0.2-0.1 0.1-0.2 0.2-0.2 0.1-0.3 0.1-0.2 0.1-0.4 0.1-0.1 0.1-0.3 0.1-0.2 0.1-0.4 0.1-0.1 0-0.3 0-0.2 0-0.5 0-0.2-0.1-0.4-0.1-0.2-0.1-0.4-0.1-0.2-0.1-0.4-0.2-0.2-0.1-0.4-0.3-0.1-0.1-0.3-0.2-0.1-0.2-0.3-0.3-0.1-0.2-0.2-0.4-0.1-0.2-0.2-0.4-0.1-0.2-0.1-0.4-0.1-0.2-0.1-0.4 0-0.2 0-0.4 0-0.2 0-0.5 0-0.2 0.1-0.4 0-0.2 0.1-0.4 0.1-0.2 0.2-0.4 0.1-0.2 0.2-0.3 0.1-0.2 0.3-0.3 0.1-0.2 0.2-0.3 0.2-0.1 0.4-0.2 0.2-0.1 0.4-0.2 0.1-0.1 0.3-0.1 0.2-0.1 0.4-0.1 0.3 0 0.5 0 0.2 0 0.4 0 0.2 0 0.4 0.1 0.2 0 0.4 0.1 0.2 0.1 0.3 0.2 0.2 0.1 0.4 0.2 0.1 0.1 0.3 0.3 0.1 0.1 0.2 0.3 0.1 0.1 0.2 0.3 0.1 0.2 0.2 0.4 0.1 0.2 0.1 0.4 0.1 0.2 0.1 0.4 0 0.2 0 0.5zm-3-2.8q-0.2 0-0.4 0.1-0.3 0-0.4 0.1-0.2 0-0.4 0.2-0.2 0.1-0.4 0.2-0.1 0.2-0.2 0.3-0.2 0.2-0.2 0.4-0.1 0.2-0.2 0.4 0 0.2-0.1 0.4h4.5q0-0.2 0-0.4-0.1-0.2-0.2-0.4-0.1-0.2-0.2-0.4-0.1-0.1-0.3-0.3-0.1-0.1-0.3-0.2-0.2-0.2-0.4-0.2-0.2-0.1-0.4-0.1-0.2-0.1-0.4-0.1zm7.4 5.7q-0.2 0-0.5 0-0.2 0-0.4-0.1-0.2 0-0.4-0.1-0.2-0.1-0.4-0.2-0.2-0.1-0.4-0.2-0.1-0.1-0.3-0.3-0.1-0.1-0.2-0.3-0.2-0.2-0.3-0.3-0.1-0.2-0.1-0.4-0.1-0.2-0.2-0.4 0-0.2-0.1-0.5 0-0.2 0-0.4 0-0.2 0-0.4 0.1-0.2 0.1-0.5 0.1-0.2 0.2-0.4 0-0.2 0.1-0.4 0.1-0.1 0.3-0.3 0.1-0.2 0.2-0.3 0.2-0.1 0.3-0.3 0.2-0.1 0.4-0.2 0.2-0.1 0.4-0.2 0.2-0.1 0.4-0.1 0.2-0.1 0.4-0.1 0.3 0 0.5 0 0.2 0 0.3 0 0.2 0 0.4 0.1 0.2 0 0.4 0.1 0.2 0 0.3 0.1 0.2 0.1 0.3 0.2 0.2 0.1 0.3 0.2 0.1 0.1 0.2 0.3 0.2 0.1 0.2 0.2l-0.6 0.5q-0.1-0.1-0.2-0.2 0-0.1-0.1-0.2-0.1-0.1-0.3-0.2-0.1-0.1-0.2-0.1-0.1-0.1-0.2-0.1-0.2-0.1-0.3-0.1-0.1 0-0.3 0-0.1-0.1-0.2-0.1-0.2 0-0.3 0.1-0.2 0-0.4 0-0.1 0.1-0.3 0.1-0.1 0.1-0.3 0.2-0.1 0-0.2 0.1-0.1 0.1-0.2 0.2-0.2 0.1-0.2 0.3-0.1 0.1-0.2 0.2-0.1 0.2-0.1 0.3-0.1 0.2-0.1 0.3-0.1 0.2-0.1 0.4 0 0.1 0 0.3 0 0.2 0 0.3 0 0.2 0.1 0.4 0 0.1 0.1 0.3 0 0.1 0.1 0.3 0.1 0.1 0.2 0.3 0 0.1 0.2 0.2 0.1 0.1 0.2 0.2 0.1 0.1 0.2 0.2 0.2 0 0.3 0.1 0.2 0.1 0.3 0.1 0.2 0 0.4 0 0.1 0.1 0.3 0.1 0.1 0 0.2 0 0.2-0.1 0.3-0.1 0.1 0 0.3-0.1 0.1 0 0.2-0.1 0.1 0 0.2-0.1 0.2-0.1 0.3-0.2 0.1 0 0.1-0.1 0.1-0.2 0.2-0.3l0.6 0.5q0 0.1-0.2 0.3-0.1 0.1-0.2 0.2-0.1 0.1-0.3 0.2-0.1 0.1-0.3 0.2-0.1 0.1-0.3 0.1-0.2 0.1-0.4 0.1-0.2 0.1-0.4 0.1-0.1 0-0.3 0zm7.5-0.4q-0.1 0-0.2 0.1 0 0-0.1 0.1-0.1 0-0.2 0 0 0.1-0.1 0.1-0.1 0-0.2 0.1-0.1 0-0.2 0-0.1 0-0.2 0-0.1 0-0.1 0-0.2 0-0.4 0-0.2 0-0.4-0.1-0.2 0-0.3-0.1-0.2-0.1-0.3-0.3-0.1-0.1-0.2-0.3-0.1-0.1-0.2-0.3-0.1-0.2-0.1-0.3 0-0.2 0-0.4v-3.8h-1.1v-0.8h1.1v-1.3h0.9v1.3h1.9v0.8h-1.9v3.7q-0.1 0.1 0 0.3 0 0.1 0 0.2 0 0.1 0.1 0.2 0.1 0.1 0.1 0.2 0.1 0.1 0.2 0.1 0.1 0.1 0.2 0.1 0.1 0.1 0.2 0.1 0.1 0 0.2 0 0.1 0 0.2 0 0 0 0.1 0 0.1 0 0.1-0.1 0.1 0 0.2 0 0 0 0.1 0 0-0.1 0.1-0.1 0 0 0.1-0.1 0 0 0.1 0zm1.5-6h0.9v6.3h-0.9zm0.4-1.3q0 0-0.1 0 0-0.1-0.1-0.1-0.1 0-0.1 0-0.1-0.1-0.1-0.1 0-0.1-0.1-0.1 0-0.1 0-0.1-0.1-0.1-0.1-0.1 0-0.1 0-0.1 0-0.1 0-0.2 0 0 0.1-0.1 0 0 0-0.1 0.1 0 0.1-0.1 0 0 0.1 0 0-0.1 0.1-0.1 0.1 0 0.1 0 0.1-0.1 0.1 0 0.1-0.1 0.2 0 0 0 0.1 0 0 0 0.1 0 0 0.1 0.1 0.1 0 0.1 0.1 0.1 0 0.1 0 0.1 0 0.1 0.1 0.1 0 0.1 0 0.1 0 0.1 0 0.2-0.1 0-0.1 0.1 0 0 0 0.1-0.1 0-0.1 0.1-0.1 0-0.1 0.1-0.1 0-0.1 0-0.1 0-0.1 0.1-0.1 0-0.2 0zm5.4 7.7q-0.2 0-0.4 0-0.3 0-0.5-0.1-0.2 0-0.4-0.1-0.2-0.1-0.4-0.2-0.1-0.1-0.3-0.2-0.2-0.1-0.3-0.3-0.2-0.1-0.3-0.3-0.1-0.2-0.2-0.3-0.1-0.2-0.2-0.4-0.1-0.2-0.1-0.4-0.1-0.3-0.1-0.5 0-0.2 0-0.4 0-0.2 0-0.4 0-0.2 0.1-0.5 0-0.2 0.1-0.4 0.1-0.2 0.2-0.4 0.1-0.1 0.2-0.3 0.1-0.2 0.3-0.3 0.1-0.2 0.3-0.3 0.2-0.1 0.3-0.2 0.2-0.1 0.4-0.2 0.2-0.1 0.4-0.1 0.2-0.1 0.5-0.1 0.2 0 0.4 0 0.2 0 0.4 0 0.2 0 0.4 0.1 0.2 0 0.4 0.1 0.2 0.1 0.4 0.2 0.2 0.1 0.4 0.2 0.1 0.1 0.3 0.3 0.1 0.1 0.3 0.3 0.1 0.2 0.2 0.3 0.1 0.2 0.2 0.4 0 0.2 0.1 0.4 0 0.3 0.1 0.5 0 0.2 0 0.4 0 0.2 0 0.4-0.1 0.2-0.1 0.5-0.1 0.2-0.1 0.4-0.1 0.2-0.2 0.4-0.1 0.1-0.2 0.3-0.2 0.2-0.3 0.3-0.2 0.2-0.3 0.3-0.2 0.1-0.4 0.2-0.2 0.1-0.4 0.2-0.2 0.1-0.4 0.1-0.2 0.1-0.4 0.1-0.2 0-0.4 0zm0-0.7q0.1 0 0.3-0.1 0.2 0 0.3 0 0.2-0.1 0.3-0.1 0.2-0.1 0.3-0.1 0.1-0.1 0.2-0.2 0.2-0.1 0.3-0.2 0.1-0.1 0.2-0.3 0.1-0.1 0.1-0.2 0.1-0.2 0.2-0.3 0-0.2 0.1-0.3 0-0.2 0-0.4 0-0.1 0-0.3 0-0.2 0-0.3 0-0.2 0-0.4-0.1-0.1-0.1-0.3-0.1-0.1-0.2-0.3 0-0.1-0.1-0.2-0.1-0.2-0.2-0.3-0.1-0.1-0.3-0.2-0.1-0.1-0.2-0.2-0.1 0-0.3-0.1-0.1 0-0.3-0.1-0.1 0-0.3 0-0.2-0.1-0.3-0.1-0.2 0-0.3 0.1-0.2 0-0.3 0-0.2 0.1-0.3 0.1-0.2 0.1-0.3 0.1-0.1 0.1-0.3 0.2-0.1 0.1-0.2 0.2-0.1 0.1-0.2 0.3-0.1 0.1-0.2 0.2 0 0.2-0.1 0.3-0.1 0.2-0.1 0.3 0 0.2 0 0.4-0.1 0.1-0.1 0.3 0 0.2 0.1 0.3 0 0.2 0 0.4 0 0.1 0.1 0.3 0.1 0.1 0.1 0.3 0.1 0.1 0.2 0.2 0.1 0.2 0.2 0.3 0.1 0.1 0.2 0.2 0.2 0.1 0.3 0.2 0.1 0 0.3 0.1 0.1 0 0.3 0.1 0.1 0 0.3 0 0.1 0.1 0.3 0.1zm8.1-5.7q0.3 0 0.5 0 0.3 0.1 0.5 0.1 0.3 0.1 0.5 0.3 0.2 0.1 0.4 0.3 0.2 0.2 0.3 0.4 0.2 0.3 0.3 0.5 0.1 0.3 0.1 0.5 0 0.3 0 0.6v3.7h-0.8v-3.6q0-0.2-0.1-0.4 0-0.2 0-0.4-0.1-0.2-0.2-0.4-0.1-0.2-0.2-0.3-0.2-0.2-0.3-0.3-0.2-0.1-0.4-0.1-0.2-0.1-0.3-0.1-0.2 0-0.4 0-0.3 0-0.5 0-0.2 0-0.4 0.1-0.2 0.1-0.4 0.2-0.2 0.1-0.3 0.3-0.2 0.1-0.3 0.3-0.1 0.2-0.2 0.4-0.1 0.3-0.1 0.5-0.1 0.2 0 0.4v3.4h-0.9v-6.4h0.8v1.2q0.1-0.1 0.2-0.3 0.1-0.1 0.2-0.2 0.2-0.1 0.3-0.2 0.1-0.1 0.3-0.2 0.2-0.1 0.3-0.1 0.2-0.1 0.4-0.1 0.2-0.1 0.4-0.1 0.1 0 0.3 0zm13.5 2q0.2 0.1 0.4 0.1 0.1 0.1 0.3 0.2 0.2 0.1 0.3 0.2 0.2 0.1 0.3 0.2 0.1 0.2 0.2 0.3 0.1 0.2 0.1 0.4 0.1 0.2 0.1 0.3 0 0.2 0 0.4 0 0.3 0 0.5-0.1 0.2-0.2 0.4-0.1 0.3-0.2 0.4-0.2 0.2-0.4 0.4-0.2 0.1-0.5 0.3-0.3 0.1-0.6 0.1-0.3 0.1-0.6 0.1-0.3 0.1-0.6 0.1h-3.9v-8.4h3.6q0.3-0.1 0.6 0 0.3 0 0.6 0.1 0.2 0 0.5 0.1 0.3 0.2 0.5 0.3 0.2 0.2 0.4 0.3 0.1 0.2 0.2 0.4 0.1 0.2 0.2 0.5 0 0.2 0 0.4 0 0.2 0 0.3 0 0.2-0.1 0.3 0 0.2-0.1 0.3-0.1 0.2-0.2 0.3 0 0.1-0.1 0.2-0.2 0.1-0.3 0.2-0.1 0.1-0.2 0.2-0.2 0.1-0.3 0.1zm-4.4-3.3v3h2.7q0.2 0 0.4 0 0.2 0 0.4 0 0.2-0.1 0.4-0.2 0.2 0 0.4-0.2 0.1-0.1 0.2-0.2 0.1-0.1 0.2-0.3 0-0.1 0.1-0.3 0-0.1 0-0.3 0-0.2 0-0.3-0.1-0.2-0.1-0.3-0.1-0.2-0.2-0.3-0.1-0.1-0.2-0.2-0.2-0.1-0.4-0.2-0.2-0.1-0.4-0.1-0.2-0.1-0.4-0.1-0.2 0-0.4 0zm2.9 6.9q0.3 0 0.5 0 0.2 0 0.4 0 0.2-0.1 0.4-0.2 0.2-0.1 0.4-0.2 0.2-0.1 0.3-0.2 0.1-0.1 0.2-0.3 0.1-0.1 0.1-0.3 0-0.2 0-0.4 0-1.5-2.3-1.5h-2.9v3.1zm10.7-5.6v6.4h-0.9v-1.2q-0.1 0.1-0.2 0.3-0.1 0.1-0.2 0.2-0.1 0.1-0.2 0.2-0.2 0.1-0.3 0.2-0.1 0.1-0.3 0.1-0.2 0.1-0.3 0.1-0.2 0.1-0.4 0.1-0.2 0-0.3 0-0.3 0-0.6 0-0.2 0-0.5-0.1-0.2-0.1-0.5-0.3-0.2-0.1-0.4-0.3-0.2-0.2-0.3-0.4-0.2-0.3-0.3-0.5 0-0.3-0.1-0.5 0-0.3 0-0.6v-3.7h0.9v3.6q-0.1 0.2 0 0.4 0 0.2 0 0.4 0.1 0.2 0.2 0.4 0.1 0.2 0.2 0.3 0.2 0.2 0.3 0.3 0.2 0.1 0.4 0.1 0.2 0.1 0.4 0.1 0.1 0.1 0.3 0 0.3 0.1 0.5 0 0.2 0 0.4-0.1 0.2-0.1 0.4-0.2 0.2-0.1 0.3-0.3 0.2-0.1 0.3-0.3 0.1-0.2 0.2-0.4 0-0.3 0.1-0.5 0-0.2 0-0.4v-3.4zm3.2 1.3q0-0.2 0.1-0.3 0.1-0.2 0.2-0.3 0.2-0.1 0.3-0.2 0.1-0.1 0.3-0.2 0.1-0.1 0.3-0.1 0.2-0.1 0.4-0.1 0.2-0.1 0.4-0.1 0.2 0 0.3 0v0.8h-0.2q-0.2 0-0.4 0-0.2 0.1-0.4 0.1-0.2 0.1-0.4 0.2-0.2 0.2-0.3 0.3-0.2 0.2-0.3 0.4-0.1 0.2-0.2 0.4 0 0.2-0.1 0.5 0 0.2 0 0.4v3.3h-0.8v-6.4h0.8zm9.3 2.2h-5.3q0 0.3 0.1 0.5 0 0.2 0.1 0.4 0.1 0.2 0.3 0.4 0.1 0.2 0.3 0.3 0.1 0.2 0.3 0.3 0.3 0.1 0.5 0.2 0.2 0.1 0.4 0.1 0.3 0 0.5 0 0.1 0 0.3 0 0.1 0 0.2 0 0.2-0.1 0.3-0.1 0.1 0 0.3-0.1 0.1 0 0.2-0.1 0.1-0.1 0.2-0.1 0.1-0.1 0.2-0.2 0.1-0.1 0.2-0.2l0.5 0.5q-0.1 0.2-0.2 0.3-0.1 0.1-0.3 0.2-0.1 0.1-0.2 0.2-0.2 0.1-0.3 0.1-0.2 0.1-0.4 0.1-0.1 0.1-0.3 0.1-0.2 0-0.4 0.1-0.2 0-0.3 0-0.3 0-0.5 0-0.2-0.1-0.4-0.1-0.2-0.1-0.4-0.2-0.3 0-0.5-0.1-0.1-0.1-0.3-0.3-0.2-0.1-0.3-0.2-0.2-0.2-0.3-0.3-0.1-0.2-0.2-0.4-0.1-0.2-0.2-0.4-0.1-0.2-0.1-0.4-0.1-0.2-0.1-0.4 0-0.2 0-0.4 0-0.3 0-0.5 0-0.2 0.1-0.4 0-0.2 0.1-0.4 0.1-0.2 0.2-0.4 0.1-0.2 0.2-0.3 0.1-0.2 0.2-0.3 0.2-0.2 0.3-0.3 0.2-0.1 0.4-0.2 0.1-0.1 0.3-0.2 0.2-0.1 0.4-0.1 0.2-0.1 0.4-0.1 0.2 0 0.4 0 0.2 0 0.4 0 0.3 0 0.4 0.1 0.2 0 0.4 0.1 0.2 0.1 0.4 0.2 0.2 0.1 0.3 0.2 0.2 0.1 0.3 0.3 0.2 0.1 0.3 0.3 0.1 0.1 0.2 0.3 0.1 0.2 0.2 0.4 0.1 0.2 0.1 0.4 0.1 0.2 0.1 0.4 0 0.2 0 0.5zm-3-2.8q-0.3 0-0.5 0.1-0.2 0-0.4 0.1-0.2 0-0.3 0.2-0.2 0.1-0.4 0.2-0.1 0.2-0.3 0.3-0.1 0.2-0.2 0.4-0.1 0.2-0.1 0.4-0.1 0.2-0.1 0.4h4.5q0-0.2-0.1-0.4 0-0.2-0.1-0.4-0.1-0.2-0.2-0.4-0.1-0.1-0.3-0.3-0.2-0.1-0.3-0.2-0.2-0.2-0.4-0.2-0.2-0.1-0.4-0.1-0.2-0.1-0.4-0.1zm6.8-0.7q0.2 0 0.5 0 0.2 0 0.5 0.1 0.2 0.1 0.4 0.2 0.3 0.1 0.5 0.3 0.1 0.2 0.3 0.4 0.1 0.2 0.2 0.5 0.1 0.2 0.1 0.4 0 0.3 0 0.5v4h-0.8v-1q-0.1 0.1-0.2 0.2-0.1 0.1-0.2 0.2-0.1 0.1-0.2 0.2-0.1 0.1-0.2 0.1-0.2 0.1-0.4 0.2-0.1 0-0.3 0.1-0.2 0-0.3 0-0.2 0-0.4 0-0.2 0-0.4 0-0.2 0-0.5-0.1-0.2-0.1-0.4-0.2-0.2-0.1-0.4-0.2-0.1-0.1-0.2-0.3-0.1-0.1-0.2-0.3-0.1-0.2-0.1-0.3-0.1-0.2-0.1-0.4 0-0.2 0-0.4 0.1-0.2 0.2-0.3 0-0.2 0.1-0.4 0.2-0.1 0.3-0.2 0.2-0.2 0.4-0.3 0.2-0.1 0.5-0.1 0.2-0.1 0.5-0.1 0.2 0 0.5 0h2v-0.4q0-0.2-0.1-0.3 0-0.2 0-0.4-0.1-0.1-0.2-0.3-0.1-0.1-0.2-0.2-0.1-0.2-0.3-0.2-0.2-0.1-0.3-0.2-0.2 0-0.4-0.1-0.2 0-0.3 0-0.2 0-0.3 0.1-0.2 0-0.3 0-0.2 0-0.3 0.1-0.1 0-0.3 0-0.1 0.1-0.2 0.1-0.2 0.1-0.3 0.2-0.1 0-0.2 0.1-0.1 0.1-0.2 0.2l-0.4-0.7q0.1-0.1 0.2-0.2 0.2 0 0.3-0.1 0.2-0.1 0.3-0.2 0.2 0 0.3-0.1 0.2 0 0.4-0.1 0.2 0 0.3-0.1 0.2 0 0.4 0 0.2 0 0.4 0zm-0.3 5.7q0.1 0 0.3 0 0.1 0 0.3 0 0.2-0.1 0.3-0.1 0.1-0.1 0.3-0.2 0.1-0.1 0.2-0.2 0.2-0.1 0.2-0.2 0.1-0.1 0.2-0.3 0.1-0.1 0.2-0.2v-1.1h-2q-1.6 0-1.6 1.2 0 0.1 0 0.2 0 0.1 0.1 0.2 0 0.2 0.1 0.3 0.1 0 0.2 0.1 0.1 0.1 0.2 0.2 0.2 0 0.3 0.1 0.2 0 0.3 0 0.2 0.1 0.4 0zm10.8-5.7v6.4h-0.8v-1.2q-0.1 0.1-0.2 0.3-0.1 0.1-0.2 0.2-0.1 0.1-0.3 0.2-0.1 0.1-0.3 0.2-0.1 0.1-0.3 0.1-0.1 0.1-0.3 0.1-0.2 0.1-0.3 0.1-0.2 0-0.4 0-0.3 0-0.5 0-0.3 0-0.5-0.1-0.3-0.1-0.5-0.3-0.2-0.1-0.4-0.3-0.2-0.2-0.4-0.4-0.1-0.3-0.2-0.5-0.1-0.3-0.1-0.5-0.1-0.3-0.1-0.6v-3.7h0.9v3.6q0 0.2 0 0.4 0 0.2 0.1 0.4 0.1 0.2 0.2 0.4 0.1 0.2 0.2 0.3 0.1 0.2 0.3 0.3 0.2 0.1 0.3 0.1 0.2 0.1 0.4 0.1 0.2 0.1 0.4 0 0.2 0.1 0.4 0 0.2 0 0.4-0.1 0.2-0.1 0.4-0.2 0.2-0.1 0.4-0.3 0.1-0.1 0.2-0.3 0.1-0.2 0.2-0.4 0.1-0.3 0.1-0.5 0.1-0.2 0-0.4v-3.4z"/>
		<g id="環保局徽LOGO">
			<path id="Path_19843" class="s2" d="m27.8 18.4q-0.8-0.5-1.5-1.1c-0.4-0.4-1 0-1.5-0.5-0.4-0.5-0.6-1.8-1-2.3q-0.1-0.2-0.2-0.4-0.2-0.2-0.3-0.4-0.1-0.2-0.2-0.4-0.1-0.2-0.2-0.4-0.1-0.2-0.1-0.4-0.1-0.3-0.2-0.5-0.1-0.2-0.1-0.5-0.1-0.2-0.1-0.4 0-0.3 0-0.5-0.1-0.3-0.1-0.5 0-0.3 0-0.5 0.1-0.3 0.1-0.5 0-0.3 0.1-0.5 0-0.3 0.1-0.5 0-0.3 0.1-0.5 0.1-0.2 0.2-0.4 0.1-0.3 0.3-0.5 0.1-0.2 0.2-0.4 0.2-0.2 0.3-0.3 0.2-0.2 0.4-0.4 0.2-0.1 0.4-0.2 0.1-0.2 0.3-0.3 0.2-0.1 0.5-0.1 0.2-0.1 0.4-0.2 0.2 0 0.4-0.1 0.3 0 0.5 0 0.2 0 0.4 0 0.3 0 0.5 0 0.2 0 0.4 0.1 0.3 0 0.5 0.1 0.2 0 0.4 0.1 0.2 0.1 0.5 0.2 0.2 0 0.4 0.2 0.2 0.1 0.3 0.2 0.2 0.1 0.4 0.2 0.2 0.2 0.3 0.3 0.2 0.2 0.3 0.3 0.1 0.1 0.2 0.3 0.1 0.1 0.2 0.2 0.2 0.2 0.3 0.3 0.1 0.2 0.2 0.4 0.1 0.1 0.2 0.3 0.1 0.1 0.2 0.3 0.1 0.2 0.2 0.4 0.1 0.1 0.2 0.3 0 0.2 0.1 0.4 0.1 0.1 0.2 0.3 0.1 0.2 0.1 0.4 0.1 0.1 0.2 0.3 0 0.2 0.1 0.3 0 0.2 0.1 0.4 0 0.2 0.1 0.3 0.2 0.8 0.3 1.5 0.2 0.8 0.3 1.6 0 0.2 0 0.4 0 0.2 0 0.4 0 0.2 0 0.4 0 0.2 0 0.4 0 0.2 0 0.4 0 0.2-0.1 0.4 0 0.2-0.1 0.4 0 0.1-0.1 0.3 0 0.3-0.1 0.5-0.1 0.2-0.3 0.4-0.1 0.2-0.3 0.4-0.2 0.1-0.3 0.3-0.2 0.1-0.4 0.2-0.2 0.1-0.4 0.2-0.2 0-0.4 0.1-0.2 0-0.4 0-0.3 0-0.5 0-0.2 0-0.4 0-0.3-0.1-0.5-0.1-0.2-0.1-0.4-0.2-0.3-0.1-0.5-0.2-0.2 0-0.4-0.2-0.2-0.1-0.4-0.2-0.2-0.1-0.4-0.3z"/>
			<path id="Path_19844" class="s3" d="m32.9 42.8q-0.3-0.2-0.5-0.5-0.2-0.3-0.3-0.6-0.2-0.3-0.3-0.6 0-0.3 0-0.7-0.1-0.3-0.2-0.6 0-0.3 0-0.7-0.1-0.3 0-0.6 0-0.4 0-0.7 0.2-0.3 0.3-0.5 0.2-0.3 0.4-0.5 0.2-0.2 0.4-0.4 0.2-0.2 0.5-0.4c0.7-0.5 0.3-0.3 1.1 0 0.3 0.2 0.5 0.1 0.8 0.3 0.6 0.5 0.4 1.2 0.4 1.7 0 0.2 0.2 0.3 0.2 0.6q0 0.1 0 0.3-0.1 0.1-0.1 0.2-0.1 0.1-0.1 0.2-0.1 0.1-0.1 0.2-0.2 0.5-0.4 1-0.2 0.4-0.4 0.9-0.2 0.4-0.5 0.8-0.3 0.5-0.6 0.9c-0.3-0.1-0.3 0-0.5-0.2z"/>
			<path id="Path_19845" class="s4" d="m35.2 44.6c0-0.6 0.2-1.3 1.9-1.9 0.9-0.3 2.6-1 2.6 0.4q0 0.5-0.2 0.8-0.2 0.4-0.5 0.7-0.3 0.3-0.7 0.5-0.3 0.2-0.8 0.2c-0.7 0-2.2 0.2-2.3-0.6z"/>
			<path id="Path_19846" class="s5" d="m29 48.3c-0.6-0.5-0.8-0.6-1-1.2-0.2-0.5 0-0.9-0.1-1.3 0-0.3-0.3-0.6-0.3-0.9q0-0.1 0-0.2 0.1-0.2 0.1-0.3 0-0.1 0-0.3 0-0.1 0.1-0.2c0.1-1.4 0.4-2.9 2-1.6 0.2 0.2 0.2 0.4 0.5 0.6 0.2 0.2 0.7 0.2 0.8 0.6 0.2 0.3-0.1 1.3-0.2 1.7q0 0.2 0 0.5-0.1 0.2-0.2 0.4-0.1 0.2-0.2 0.4-0.1 0.2-0.2 0.4c-0.3 0.6-0.3 1.1-0.7 1.5q-0.1 0.1-0.1 0.1-0.1 0-0.2 0 0 0-0.1-0.1-0.1 0-0.1 0z"/>
			<path id="Path_19847" class="s4" d="m24.6 47.6q0.3 0.1 0.5 0.2 0.3 0.1 0.6 0.2 0.2 0.2 0.4 0.4 0.3 0.1 0.5 0.4 0.2 0.1 0.3 0.2 0.2 0.2 0.4 0.3 0.2 0.2 0.3 0.4 0.2 0.1 0.3 0.3c0.7 1 1 3.5-0.6 3.6-1.4 0-2.6-1.6-2.8-2.8-0.1-0.7 0-1.3-0.1-2 0-0.4-0.5-1.1 0.1-1.2z"/>
			<path id="Path_19848" class="s2" d="m22.3 58.1q-0.1-0.3-0.2-0.5-0.1-0.3-0.3-0.5-0.1-0.2-0.3-0.4-0.1-0.2-0.3-0.4c-0.2-0.2-0.7-0.2-0.9-0.3-0.4-0.5-0.4-0.8 0.2-1.4q0.3-0.2 0.6-0.3 0.3-0.1 0.7-0.1 0.3 0 0.7 0 0.3 0.1 0.6 0.2 0.3 0.3 0.4 0.7 0.2 0.3 0.2 0.7 0 0.4 0 0.8-0.1 0.4-0.3 0.7c-0.1 0.3-0.1 1.2-0.4 1.3-0.4 0.2-0.6 0-0.7-0.4z"/>
			<path id="Path_19849" class="s3" d="m33.9 50.1c0.5-0.9 0.8-2 1.7-2.6 1-0.5 2.6-0.7 3 0.6 0.4 1.6-4 3.1-4.6 2z"/>
			<path id="Path_19850" class="s2" d="m36.6 54.4c-0.7 0-1 1-1.5 1.5-0.3 0.3-0.7 0.3-1.1 0.4q-0.2 0.2-0.4 0.3-0.3 0.1-0.5 0.2-0.2 0-0.5 0.1-0.2 0-0.5 0c-1-0.2-0.3-0.7-0.4-1.5-0.4-1.6 1.1-1.2 2.2-1.9 0.7-0.5 1.9-0.6 2.3-1.3 0.3-0.3 0.1-0.8 0.6-0.8 0.4 0.6 0.2 1 0 1.5 0 0.1-0.1 0.4-0.2 0.7-0.1 0.4-0.2 0.8 0 0.8z"/>
			<path id="Path_19851" class="s4" d="m33.6 58.9q0 0.2 0.1 0.4 0 0.2 0 0.4 0 0.2-0.1 0.4 0 0.1-0.1 0.3c-0.4 0.7-0.6 0.4-1.3 0.5-1.3 0.2-1.9 0.9-3.3 0.3-1.9-0.8-1-1.2 0.4-1.9q0.2-0.2 0.3-0.3 0.2-0.1 0.4-0.2 0.2-0.1 0.4-0.1 0.2-0.1 0.4-0.2 0.3 0 0.7 0 0.3 0 0.6 0 0.4 0.1 0.7 0.1 0.4 0 0.7 0.1c0.2 0 0 0.1 0.1 0.2z"/>
			<g id="Group_21410">
				<path id="Path_19852" class="s2" d="m18.1 69.4c1.5-2.4 2.2-4.9 3.6-7.3q0.2-0.2 0.4-0.4 0.1-0.2 0.3-0.4 0.1-0.2 0.3-0.4 0.1-0.2 0.2-0.4c2.4-3.2 5.3-5.3 7.5-8.7 1.2-1.9 1.7-4.1 2.6-6q0 0.6-0.1 1.2 0 0.5-0.2 1.1-0.1 0.6-0.2 1.2-0.2 0.5-0.4 1.1c-0.8 1.6-1 3.3-2 4.8-1.4 2.4-3.1 4.3-4.5 6.7-1.5 2.4-1.5 5.3-1.7 7.9-1.9 0-4.1 0.8-6 0.5-0.3-0.2 0.2-0.5 0.2-0.9z"/>
			</g>
			<g id="Group_21411">
				<path id="Path_19853" fill-rule="evenodd" class="s2" d="m58.5 44.3q-0.3 1-0.7 2-0.4 1-0.8 2-0.4 0.9-0.8 1.9-0.5 0.9-1 1.8-0.8 1.4-1.6 2.7-0.9 1.4-1.8 2.6-0.9 1.3-1.9 2.5-1 1.2-2.1 2.3-0.8 0.8-1.5 1.6-0.8 0.7-1.6 1.5-0.8 0.7-1.6 1.3-0.9 0.7-1.8 1.3 0 0.1-0.1 0.1-0.1 0.1-0.1 0.1-0.1 0.1-0.2 0.1 0 0.1-0.1 0.1 0.1 0 0.2-0.1-0.1 0.2-0.3 0.3-0.2 0.1-0.4 0.2-0.2 0.1-0.3 0.3-0.2 0.1-0.4 0.2c-0.7 0.3-1.8 0.6-1.6 0.4 0.7-0.5 2.9-1.8 2.9-2.3q-0.4 0.3-0.8 0.7-0.4 0.3-0.8 0.6-0.4 0.3-0.8 0.6-0.4 0.3-0.8 0.6-0.2 0.1-0.3 0.2-0.1 0.1-0.3 0.2-0.1 0.1-0.2 0.1-0.2 0.1-0.3 0.2-0.1 0-0.1 0-0.1 0.1-0.1 0.1-0.1 0-0.1 0-0.1 0.1-0.2 0.1c0 0-0.4 0.2-0.3 0.1q-0.1 0.1-0.2 0.2-0.1 0-0.2 0.1-0.1 0-0.2 0.1-0.1 0-0.2 0c-0.2 0.2-1.2 0.6-1.5 0.7q-0.1 0.1-0.2 0.2-0.2 0-0.3 0.1-0.2 0-0.3 0.1-0.2 0-0.3 0c-0.4-0.1 0.7-0.8 1.1-1q-0.1 0-0.1 0-0.1 0-0.2 0.1 0 0-0.1 0-0.1 0-0.2 0c-0.5 0 0.1-0.3 0.4-0.4 0.7-0.3 0.7-0.5 1-0.7q-0.4 0.2-0.7 0.3-0.5 0.1-1 0.3-0.4 0.2-0.9 0.4-0.5 0.2-0.9 0.5-0.1 0-0.2 0-0.1 0-0.1 0.1-0.1 0-0.2 0-0.1 0-0.2 0.1c0.5-0.3 2-1.2 2.5-1.5q0.9-0.5 1.8-1.1c0.2-0.1 1.1-0.5 1.1-0.8 0-0.2-0.5 0.2-0.5 0.1q0 0 0-0.1c-0.5 0.4-1.5 1.3-2.2 1.3 0.1 0 0.9-0.5 1-0.5-0.2 0.1-1.3 0.1-1.4 0.3q0.1-0.2 0.3-0.4 0.1-0.1 0.3-0.3 0.2-0.1 0.3-0.2c-0.1 0.1-0.3 0.1-0.5 0.3-0.6 0.2-1.4 0.5-1.4 0.4-0.1-0.1 1.4-1.2 1.6-1.3q0.2-0.1 0.4-0.2 0.2-0.2 0.4-0.3 0.2-0.1 0.4-0.2 0.2-0.2 0.4-0.3-0.3 0.1-0.5 0.2-0.2 0.1-0.5 0.2-0.2 0.1-0.4 0.2-0.2 0.1-0.4 0.3c-0.4 0.1-1 0.5-1.4 0.3-0.1 0 0.7-0.1 0.8-0.5-0.2-0.1 0.6-0.7 0.4-0.6-0.1 0.1-2.1 1.3-2.1 0.9q-0.1 0-0.1-0.1-0.1 0-0.2-0.1 0 0-0.1 0-0.1 0-0.1-0.1 0 0 0 0 0.1 0 0.1-0.1 0 0 0 0 0-0.1 0-0.1c-0.2-0.1-1.8 0.9-2.1 1 0.4-0.3 2-1.2 2.5-1.4 0-0.3 0.2-0.4 0.3-0.5-0.3-0.2-1.8 1-2.3 1q0.5-0.2 1-0.5 0.5-0.3 0.9-0.6 0.5-0.3 0.9-0.6 0.5-0.3 0.9-0.7c0.8-0.5 1.6-1.1 2.4-1.5 0.4-0.2 0.6-0.5 1-0.8 0 0-0.1 0.1-0.2 0-0.2-0.1-1.4 0.8-1.6 0.8 0.9-0.8 2-1.6 2.3-1.8-0.1 0-2 1.3-2.1 1.3 0.3-0.2 2.2-1.5 2.5-1.7q0.1-0.1 0.2-0.2 0.1-0.1 0.2-0.1 0.1-0.1 0.2-0.2 0.1 0 0.2-0.1c0.2-0.1 0.1-0.1 0.2-0.2 0.6-0.5 1.1-0.7 0.9-0.8q0.3-0.2 0.5-0.4 0.3-0.3 0.5-0.5 0.2-0.3 0.4-0.5 0.3-0.3 0.5-0.6 0.7-0.7 1.3-1.4 0.7-0.7 1.3-1.5 0.7-0.7 1.3-1.5 0.6-0.8 1.1-1.6c4.1-6.3 10.2-18.3 0-22.3-7.7-3.1-14.4 5.5-14.4 5.5-8.2-9-20.5-7.9-20.7 1.5-0.2 8.8 8.1 12.1 8.1 12.1v2.7q-0.4-0.1-0.9-0.3-0.4-0.2-0.9-0.4-0.4-0.2-0.8-0.4-0.5-0.3-0.9-0.5c0.1 0.4 3.5 2.5 3.5 2.5v1.7q-0.4-0.2-0.8-0.4-0.5-0.2-0.9-0.3-0.4-0.2-0.8-0.4-0.4-0.2-0.9-0.5c0.6 0.9 3.4 2.3 3.4 2.3v1.6l-3.2-1.4 3.3 2.1v3.2c-7.2-4.2-14.4-9.2-17.5-19.4-3.2-10.2 2.6-20.6 12.6-21.4 10.1-0.8 16.8 6.1 17.7 5.3q1.5-1.3 3.2-2.3 1.6-1 3.5-1.6 1.8-0.7 3.7-1 1.9-0.3 3.9-0.2c6.2 0 18.8 6.6 13 24.6zm-27.6 22.4q0.1-0.1 0.3-0.2-0.2 0.1-0.4 0.2 0.1 0 0.1 0zm0.3-0.2c0.1-0.1 0.3-0.2 0.3-0.3q-0.2 0.1-0.3 0.3zm2.6 2q-0.2 0.1-0.4 0.2 0 0-0.1 0c0.1 0 0.3-0.1 0.5-0.2zm-1.4 1.1q0 0 0 0 0 0 0 0zm1.5-0.3q0 0-0.1 0 0.1 0 0.1 0zm-1.1 0.5q0 0 0 0 0 0 0 0zm2.2-1.3q0 0.1 0 0 0 0 0 0zm-0.5 1.7q-0.1 0-0.2 0 0.1 0 0.2 0zm-0.9 0.9q0 0-0.1 0.1 0 0 0.1-0.1zm1.4-2.6q0 0 0 0 0 0 0 0zm-4.4-0.7q0.1-0.1 0.1-0.1 0.1-0.1 0.1-0.2 0 0 0.1-0.1c-0.2 0.1-0.5 0.3-0.7 0.4l0.3 0.1q0.1-0.1 0.1-0.1zm5-3.5c0-0.1-2.2 1.4-2.3 1.5l1-0.4c1.5-0.5 2.3-1.8 1.3-1.1zm-2.3 1.5q0 0 0 0zm3.8 1.9c-0.1-0.1-0.8 0.4-1.1 0.7 0.1 0.1 0 0.3-0.6 0.7-0.1 0.1-1 0.7-1.2 0.8-0.4 0.3 0.6 0 1.6-0.7 0.6-0.4-0.2-0.1 0.3-0.5 0.1-0.1 0.9-0.9 1-1zm-1.4 0.6q0.1 0 0.1 0 0 0-0.1 0zm0.2 0.1q0.1 0 0.1 0c0-0.1-0.1-0.2-0.1-0.2q-0.1 0.1 0 0.2zm0-0.3q0 0.1-0.1 0.2 0-0.1 0.1-0.1 0 0 0-0.1zm3.7-0.6zm-1 1.4h-0.1q-0.1 0.1-0.2 0.1-0.1 0.1-0.2 0.1-0.1 0.1-0.2 0.1-0.1 0.1-0.2 0.1h0.1l-0.2 0.1v-0.3q-0.1 0.1-0.2 0.2-0.1 0.1-0.3 0.2-0.1 0.1-0.2 0.2-0.1 0.1-0.3 0.2c-0.1 0.2-0.4 0.2-0.4 0.3 0.1 0.1 0.2 0 0.2 0 0.5-0.2 0.7-0.4 1.6-0.8 0.1-0.2 0.5-0.3 0.6-0.5zm0.3-0.3q0.1-0.2 0.3-0.3 0.1-0.1 0.2-0.3 0.1-0.1 0.3-0.3c-0.3 0.2-0.7 0.8-0.9 1q0 0 0 0-0.1 0.1-0.1 0.1 0 0 0.1-0.1 0 0 0.1-0.1zm0.8-0.9q0 0 0 0 0 0 0 0 0 0 0 0 0 0 0 0 0 0 0 0z"/>
				<path id="Path_19854" class="s2" d="m34.7 63.8q-0.2 0.2-0.4 0.3-0.3 0.2-0.5 0.3-0.2 0.1-0.5 0.3 0.8-0.6 1.6-1.2h0.3q-0.3 0.1-0.5 0.3z"/>
				<path id="Path_19855" class="s2" d="m32.6 65.1q0.1 0 0.1-0.1 0.1-0.1 0.2-0.1 0.1-0.1 0.2-0.1 0.1-0.1 0.2-0.1-0.4 0.2-0.7 0.4z"/>
				<path id="Path_19856" class="s2" d="m33.5 64.1q0.1 0 0.1-0.1 0 0 0.1 0 0 0 0 0l-0.2 0.2q0-0.1 0-0.1z"/>
				<path id="Path_19857" class="s2" d="m31.8 65q0-0.1 0-0.1 0.1 0 0.1 0 0 0 0.1 0-0.1 0.1-0.3 0.2-0.1 0.1-0.2 0.2-0.1 0-0.2 0.1-0.2 0.1-0.3 0.2 0 0-0.1 0 0 0 0 0-0.1-0.1-0.1-0.1 0 0 0 0l0.2-0.1c0.3 0 0.5-0.2 0.7-0.4q0 0 0.1 0z"/>
				<path id="Path_19858" class="s2" d="m30.7 66.2q0.1-0.1 0.2-0.2 0.1-0.1 0.2-0.2 0.1-0.1 0.2-0.1h-0.1q0.1-0.1 0.3-0.2 0.1-0.1 0.3-0.2 0.1-0.1 0.2-0.2 0.2-0.1 0.3-0.2l-1.8 1.4q0.1-0.1 0.2-0.1z"/>
				<path id="Path_19859" class="s2" d="m28.4 67.7l0.2-0.1c-0.1 0-0.2 0-0.2 0.1z"/>
				<path id="Path_19860" class="s2" d="m31.9 72.4q0 0 0.1 0 0 0 0 0.1 0 0 0 0c0 0.1-0.1 0.2-0.2 0.2q0 0 0 0-0.1 0-0.1 0 0 0 0-0.1-0.1 0-0.1 0c0-0.1 0.1-0.2 0.2-0.2q0.1 0 0.1 0z"/>
			</g>
		</g>
	</g>
</svg>