<svg id="icon-phone" xmlns="http://www.w3.org/2000/svg" width="40" height="40" viewBox="0 0 40 40">
  <rect id="Rectangle_23181" data-name="Rectangle 23181" width="40" height="40" fill="none"/>
  <path id="Path_19792" data-name="Path 19792" d="M49.719,49.452a15.476,15.476,0,0,0,7.22,7.2,1.481,1.481,0,0,0,1.462-.111l4.628-3.092a1.462,1.462,0,0,1,1.407-.13L73.1,57.042a1.462,1.462,0,0,1,.889,1.536,8.886,8.886,0,0,1-8.812,7.757A25.176,25.176,0,0,1,40,41.159a8.885,8.885,0,0,1,7.755-8.811,1.462,1.462,0,0,1,1.538.888l3.721,8.682a1.481,1.481,0,0,1-.111,1.388l-3.092,4.7A1.481,1.481,0,0,0,49.719,49.452Z" transform="translate(-36.5 -29.836)" fill="none" stroke="#fff" stroke-linecap="round" stroke-linejoin="round" stroke-width="1.5"/>
</svg>
