<svg xmlns="http://www.w3.org/2000/svg" width="90" height="102.022" viewBox="0 0 90 102.022">
  <g id="logo" transform="translate(-3.892 -5.153)">
    <path id="Path_19843" data-name="Path 19843" d="M102.229,25.759c-.723-.528-1.448-1.1-2.152-1.711s-1.608-.051-2.245-.74-1.007-2.632-1.529-3.394a14.213,14.213,0,0,1-1.329-2.392,11.057,11.057,0,0,1-.765-2.787,11.641,11.641,0,0,1-.039-3.019,9.163,9.163,0,0,1,.8-2.85,6.618,6.618,0,0,1,1.756-2.282A6.2,6.2,0,0,1,99.11,5.392a7.834,7.834,0,0,1,2.706-.2,8.74,8.74,0,0,1,2.653.684,7.553,7.553,0,0,1,2.225,1.463,11.691,11.691,0,0,1,1.382,1.639,18.2,18.2,0,0,1,1.221,1.994,20.914,20.914,0,0,1,.981,2.124,16.367,16.367,0,0,1,.659,2.03c.178.719.362,1.479.525,2.26s.3,1.582.387,2.384a14.05,14.05,0,0,1,.068,2.387,8.717,8.717,0,0,1-.431,2.267,4.629,4.629,0,0,1-1.616,2.321,4.365,4.365,0,0,1-2.377.8,7.153,7.153,0,0,1-2.695-.428A9.986,9.986,0,0,1,102.229,25.759Z" transform="translate(-56.682)" fill="#33a02c"/>
    <path id="Path_19844" data-name="Path 19844" d="M133.805,141.357a4.221,4.221,0,0,1-1.707-3.476c-.161-1.266-.627-2.682-.205-3.94a6.355,6.355,0,0,1,2.315-2.7c1.1-.756.471-.51,1.6-.005.465.206.884.142,1.288.473.892.734.545,1.761.61,2.568.025.309.3.4.283.885a4.848,4.848,0,0,1-.507,1.319,18.421,18.421,0,0,1-2.786,5.309c-.446-.019-.47.093-.728-.272Z" transform="translate(-80.534 -79.082)" fill="#ff730c"/>
    <path id="Path_19845" data-name="Path 19845" d="M146.417,161.2c.058-.961.41-1.955,2.974-2.9,1.341-.5,3.793-1.44,3.791.648a3.377,3.377,0,0,1-3.213,3.267c-1.151.057-3.284.35-3.431-.865Z" transform="translate(-89.785 -96.111)" fill="#8cc919"/>
    <path id="Path_19846" data-name="Path 19846" d="M117.9,165.347c-.817-.743-1.1-.9-1.435-1.889-.249-.744.006-1.277-.108-1.961-.072-.431-.434-.807-.467-1.229a12.342,12.342,0,0,1,.23-1.626c.159-2,.7-4.329,2.989-2.319.348.3.383.556.809.9.355.287,1.027.33,1.243.822.231.524-.216,1.982-.283,2.616a6.6,6.6,0,0,1-.936,2.551c-.448.9-.434,1.613-1.108,2.293a1.037,1.037,0,0,1-.777-.092Z" transform="translate(-70.571 -94.706)" fill="#28aecf"/>
    <path id="Path_19847" data-name="Path 19847" d="M102.411,179.152c-.846.107-.2,1.163-.087,1.831.169,1.044-.066,1.938.1,2.939.283,1.768,2.138,4.26,4.171,4.138,2.488-.149,1.937-3.909.992-5.294a7.34,7.34,0,0,0-2.066-1.91c-.877-.647-1.711-1.6-2.943-1.689Z" transform="translate(-61.798 -109.588)" fill="#8cc919"/>
    <path id="Path_19848" data-name="Path 19848" d="M88.469,211.712a7.533,7.533,0,0,0-1.622-2.7c-.315-.25-1.03-.216-1.279-.476-.606-.634-.649-1.182.262-1.988.73-.646,3.3-.945,3.932-.335,1.261,1.218.9,3.122.435,4.4-.168.462-.188,1.664-.591,1.9-.589.347-.937-.033-1.041-.609Z" transform="translate(-51.187 -126.471)" fill="#33a02c"/>
    <path id="Path_19849" data-name="Path 19849" d="M141.467,181.791c.829,1.646,7.461-.7,6.786-3.114-.542-1.939-2.958-1.619-4.4-.773s-1.87,2.461-2.637,3.763Z" transform="translate(-86.502 -108.452)" fill="#ff730c"/>
    <path id="Path_19850" data-name="Path 19850" d="M139.358,197.828c.116-.472.259-.911.286-.976.353-.846.674-1.419.083-2.271-.79-.045-.542.707-.871,1.2-.72,1.079-2.522,1.2-3.558,1.869-1.629,1.053-3.844.533-3.292,2.956.255,1.123-.806,1.851.653,2.156a4.737,4.737,0,0,0,2.827-.794c.625-.281,1.173-.266,1.7-.736.693-.622,1.1-2.177,2.146-2.147C139.1,199.083,139.21,198.429,139.358,197.828Z" transform="translate(-80.598 -119.319)" fill="#33a02c"/>
    <path id="Path_19851" data-name="Path 19851" d="M125.035,223.694c-1.272.023-2.7-.513-4.034-.256a11.161,11.161,0,0,0-2.276,1.121c-2.1,1.04-3.471,1.758-.506,2.963,1.99.809,3-.172,4.89-.513.984-.179,1.343.307,1.926-.7a3.058,3.058,0,0,0,.125-2.237S125.389,223.688,125.035,223.694Z" transform="translate(-70.917 -137.537)" fill="#8cc919"/>
    <g id="Group_21410" data-name="Group 21410" transform="translate(30.629 66.846)">
      <path id="Path_19852" data-name="Path 19852" d="M76.145,204.816c2.162-3.6,3.243-7.207,5.406-10.811a15.257,15.257,0,0,0,1.8-2.523c3.6-4.685,7.928-7.928,11.171-12.973,1.8-2.883,2.523-6.126,3.964-9.009a21.071,21.071,0,0,1-1.441,6.847c-1.081,2.523-1.441,5.045-2.883,7.207-2.162,3.6-4.685,6.487-6.847,10.09s-2.162,7.928-2.523,11.892c-2.883,0-6.126,1.081-9.009.721-.36-.36.36-.721.36-1.441Z" transform="translate(-75.684 -169.5)" fill="#33a02c"/>
    </g>
    <g id="Group_21411" data-name="Group 21411" transform="translate(3.892 27.229)">
      <path id="Path_19853" data-name="Path 19853" d="M72.07,66.878c-8.735,0-14.679,2.111-21.317,7.571,0,0-11.515-9.155-26.538-7.923S.457,83.416,5.174,98.723s15.548,22.7,26.377,29.03V123l-5.063-3.164,4.888,2.108v-2.463s-4.192-2.112-5.066-3.343a54.923,54.923,0,0,0,5.066,2.287v-2.463s-5.066-3.167-5.24-3.871c0,0,3.494,2.287,5.24,2.463v-4.041S18.821,105.59,19.148,92.389C19.5,78.314,38,76.555,50.228,90.1c0,0,10.137-12.843,21.668-8.269,15.2,6.029,6.054,24.089-.009,33.468a76.758,76.758,0,0,1-7.577,9.07,24.906,24.906,0,0,1-2.78,3.012c.246.147-.492.372-1.354,1.178-.172.161-.024.115-.308.248a10.233,10.233,0,0,0-1.231.868c-.437.3-3.251,2.3-3.693,2.6.1.024,3-2.015,3.1-1.99-.492.374-2.112,1.556-3.466,2.734.336-.025,2.111-1.429,2.412-1.19.086.069.27.03.376.006-.613.359-.955.912-1.588,1.214-1.241.62-2.372,1.47-3.559,2.209l.007.08c-1.593,1.435-3.762,2.337-5.513,3.576.725,0,3.112-2.03,3.535-1.561.331-.217.614-.5.96-.694-.286.474-1.492.53-1.615,1.393-.624.3-3.07,1.738-3.666,2.094.383-.155,2.769-1.556,3.162-1.411a.631.631,0,0,1-.219.345,1.935,1.935,0,0,1,.752.392c.038.539,2.972-1.275,3.129-1.368.317-.187-.891.8-.55.862-.13.6-1.318.822-1.241.856.608.266,1.538-.325,2.07-.578a15.41,15.41,0,0,1,2.714-1.277,13.112,13.112,0,0,1-2.4,1.445c-.273.133-2.506,1.893-2.268,2-.074.209,1.138-.251,1.98-.643.768-.357.807-.346,1.573-.7a4.242,4.242,0,0,0-2.132,1.59c.176-.272,1.859-.311,2.214-.42-.192.033-1.409.746-1.591.73,1.026.088,2.615-1.335,3.334-1.9-.065.138-.118-.032-.068.117.08.236.694-.391.7-.147.006.535-1.237,1.059-1.618,1.292-.889.543-1.765,1.11-2.67,1.626-.739.421-2.96,1.786-3.714,2.138a6.094,6.094,0,0,0,.984-.289c1.217-.463,3.881-1.952,5.651-2.248-.864.145-.454.5-1.886,1.094-.494.206-1.265.624-.637.6A1.559,1.559,0,0,0,54.292,144c-.2.1-2.423,1.493-1.8,1.64a3.881,3.881,0,0,0,1.679-.547c.357-.206,1.862-.85,2.272-1.044a4.418,4.418,0,0,0,1.086-.6c-.074.064.528-.227.589-.238a2.851,2.851,0,0,0,.68-.309,13.347,13.347,0,0,0,1.578-.968,46.126,46.126,0,0,0,4.862-3.847c.023.81-3.247,2.767-4.316,3.551-.315.231,1.349-.166,2.341-.686a24.971,24.971,0,0,0,2.193-1.418c-.1.055-.225.093-.321.135a5.073,5.073,0,0,1,.745-.593,60.66,60.66,0,0,0,9.677-8.528,72.016,72.016,0,0,0,11.111-15.142,65.716,65.716,0,0,0,4.977-11.588C100.377,76.731,81.5,66.878,72.07,66.878ZM49.612,139.094l-.349-.017c.24-.242.632-.452.911-.7A.879.879,0,0,1,49.612,139.094Zm5.7-3.714-1.508.589c0,.03,3.483-2.282,3.508-2.263C58.771,132.758,57.652,134.636,55.313,135.379Zm2.663,5.061c-.729.55.462.012-.345.716-1.5.959-3.081,1.453-2.4,1.054.222-.183,1.624-1.021,1.785-1.24,1.645-1.219.674-1.394.493-1.237.739-.5-.131-.073.252.242.2-.069,1.619-1.291,1.816-1.147C59.4,139.069,58.187,140.218,57.976,140.441Zm5.376-1.824.005.028-.02-.015Zm-2.55,2.749c-1.306.735-1.644.958-2.3,1.263-.094.026-.177.089-.264.054-.045-.244.409-.262.6-.432a16.8,16.8,0,0,1,1.5-1.28l-.112.43.27-.143-.1.075a8.9,8.9,0,0,0,1.15-.617l.147-.046C61.558,140.978,61.069,141.091,60.8,141.366Zm2.556-2.409a16.656,16.656,0,0,1-1.51,1.625C62.178,140.324,62.931,139.137,63.357,138.957Zm.016-.016a.187.187,0,0,0,.025-.03v0C63.392,138.924,63.382,138.932,63.373,138.94Z" transform="translate(-3.892 -66.412)" fill="#33a02c"/>
      <path id="Path_19854" data-name="Path 19854" d="M141.888,242.994l-.348.093c-.8.547-1.6,1.136-2.418,1.694A15.585,15.585,0,0,0,141.888,242.994Z" transform="translate(-89.142 -176.892)" fill="#33a02c"/>
      <path id="Path_19855" data-name="Path 19855" d="M137.213,247.953a10.6,10.6,0,0,0-1.076.713C136.5,248.439,136.856,248.2,137.213,247.953Z" transform="translate(-87.284 -180.064)" fill="#33a02c"/>
      <path id="Path_19856" data-name="Path 19856" d="M139.791,245.36l.431-.322A.9.9,0,0,0,139.791,245.36Z" transform="translate(-89.598 -178.2)" fill="#33a02c"/>
      <path id="Path_19857" data-name="Path 19857" d="M130.173,249.125c-.25.276-.546.652-1.059.575l-.37.192a1.051,1.051,0,0,0,.383.122,12.527,12.527,0,0,0,1.448-1.025A.825.825,0,0,0,130.173,249.125Z" transform="translate(-82.612 -180.728)" fill="#33a02c"/>
      <path id="Path_19858" data-name="Path 19858" d="M127.7,251.111l2.737-2.1-.048-.047a9.849,9.849,0,0,1-1.672,1.123l.123.044A6.415,6.415,0,0,0,127.7,251.111Z" transform="translate(-81.94 -180.71)" fill="#33a02c"/>
      <path id="Path_19859" data-name="Path 19859" d="M119.306,260.377l.266-.168C119.481,260.253,119.351,260.287,119.306,260.377Z" transform="translate(-76.68 -187.904)" fill="#33a02c"/>
      <path id="Path_19860" data-name="Path 19860" d="M132.66,280.189c-.143.055-.327.141-.315.288a.246.246,0,0,0,.293.145c.143-.055.327-.132.313-.279A.247.247,0,0,0,132.66,280.189Z" transform="translate(-84.899 -200.68)" fill="#33a02c"/>
    </g>
  </g>
</svg>
