<svg xmlns="http://www.w3.org/2000/svg" width="40" height="40" viewBox="0 0 40 40">
  <g id="share" transform="translate(-1199 -1576)">
    <rect id="Rectangle_23333" data-name="Rectangle 23333" width="40" height="40" transform="translate(1199 1576)" fill="#9a9a9a" opacity="0"/>
    <path id="Union_4" data-name="Union 4" d="M-6120.5-3716a4.98,4.98,0,0,1,.668-2.5l-11.678-7.3A5,5,0,0,1-6136-3723a5,5,0,0,1-5-5,5,5,0,0,1,5-5,5,5,0,0,1,4.6,3.043l11.161-7.439a5,5,0,0,1-.263-1.6,5,5,0,0,1,5-5,5,5,0,0,1,5,5,5,5,0,0,1-5,5,5,5,0,0,1-4.211-2.3l-11.343,7.561a5.041,5.041,0,0,1,.055.743,5.008,5.008,0,0,1-.108,1.037l12,7.5A4.984,4.984,0,0,1-6115.5-3721a5,5,0,0,1,5,5,5,5,0,0,1-5,5A5,5,0,0,1-6120.5-3716Z" transform="translate(7345 5324)" fill="#fff"/>
  </g>
</svg>
